<?xml version="1.0" encoding="UTF-8"?>
<!-- Generator: visioncortex VTracer 0.6.3 -->
<svg version="1.1" xmlns="http://www.w3.org/2000/svg" width="1280" height="1280">
<path d="M0 0 C1.98 -0 3.96 -0.01 5.95 -0.01 C11.4 -0.02 16.85 -0.01 22.3 -0.01 C28.23 -0 34.16 -0.01 40.09 -0.01 C50.49 -0.02 60.88 -0.02 71.28 -0.01 C82.43 -0.01 93.58 -0.01 104.73 -0.01 C105.43 -0.01 106.14 -0.01 106.86 -0.01 C109.73 -0.01 112.6 -0.01 115.47 -0.02 C142.2 -0.03 168.92 -0.03 195.65 -0.02 C196.84 -0.02 196.84 -0.02 198.05 -0.02 C199.24 -0.02 199.24 -0.02 200.45 -0.02 C224.6 -0.01 248.75 -0.01 272.91 -0.02 C274.52 -0.02 276.14 -0.02 277.76 -0.02 C284.25 -0.02 290.75 -0.02 297.25 -0.02 C315.42 -0.02 333.58 -0.02 351.74 -0.02 C352.57 -0.02 353.4 -0.02 354.25 -0.02 C380.61 -0.02 406.97 -0.02 433.32 -0.02 C434.18 -0.02 435.03 -0.02 435.91 -0.02 C449.8 -0.01 463.68 -0.01 477.57 -0.01 C532.64 0 587.72 0 642.79 -0.01 C656.67 -0.01 670.55 -0.01 684.44 -0.02 C685.29 -0.02 686.15 -0.02 687.03 -0.02 C713.36 -0.02 739.69 -0.02 766.03 -0.02 C767.27 -0.02 767.27 -0.02 768.53 -0.02 C786.67 -0.02 804.82 -0.02 822.96 -0.02 C829.45 -0.02 835.94 -0.02 842.43 -0.02 C844.05 -0.02 845.66 -0.02 847.27 -0.02 C871.42 -0.01 895.57 -0.02 919.72 -0.02 C920.91 -0.02 920.91 -0.02 922.12 -0.02 C923.31 -0.02 923.31 -0.02 924.52 -0.02 C951.16 -0.03 977.8 -0.02 1004.44 -0.01 C1007.3 -0.01 1010.16 -0.01 1013.02 -0.01 C1013.72 -0.01 1014.43 -0.01 1015.15 -0.01 C1026.27 -0.01 1037.4 -0.01 1048.52 -0.01 C1059.45 -0.02 1070.38 -0.02 1081.31 -0.01 C1087.16 -0 1093.01 -0 1098.86 -0.01 C1104.18 -0.02 1109.49 -0.01 1114.81 -0 C1116.73 -0 1118.64 -0 1120.56 -0.01 C1123.15 -0.01 1125.75 -0.01 1128.34 0 C1129.09 -0 1129.83 -0.01 1130.6 -0.01 C1136.34 0.03 1141.16 1.42 1146.55 3.25 C1149.7 4.36 1149.7 4.36 1153.42 4.94 C1158.01 6.02 1160.96 8.68 1164.52 11.66 C1166.63 13.45 1166.63 13.45 1169.74 14.19 C1173.64 15.63 1175.35 18.11 1177.94 21.29 C1179.67 23.45 1179.67 23.45 1182.49 25.5 C1184.88 27.47 1185.01 28.34 1185.61 31.25 C1186.6 31.58 1187.59 31.91 1188.61 32.25 C1190.24 35.69 1190.24 35.69 1191.61 39.25 C1191.94 39.91 1192.27 40.57 1192.61 41.25 C1192.61 42.57 1192.61 43.89 1192.61 45.25 C1193.6 45.91 1194.59 46.57 1195.61 47.25 C1195.61 48.57 1195.61 49.89 1195.61 51.25 C1196.6 51.25 1197.59 51.25 1198.61 51.25 C1198.61 66.1 1198.61 80.95 1198.61 96.25 C1197.62 96.25 1196.63 96.25 1195.61 96.25 C1195.28 97.9 1194.95 99.55 1194.61 101.25 C1193.95 101.25 1193.29 101.25 1192.61 101.25 C1192.28 102.24 1191.95 103.23 1191.61 104.25 C1190.95 104.25 1190.29 104.25 1189.61 104.25 C1189.28 105.9 1188.95 107.55 1188.61 109.25 C1189.27 109.58 1189.93 109.91 1190.61 110.25 C1189.13 111.24 1189.13 111.24 1187.61 112.25 C1187.24 113.55 1187.24 113.55 1186.86 114.88 C1185.02 119.85 1181.44 124.93 1176.51 127.24 C1174.44 128.1 1174.44 128.1 1173.65 130.24 C1172.26 132.94 1170.84 133.31 1168.05 134.38 C1164.62 135.5 1164.62 135.5 1162.61 138.25 C1160.37 138.85 1158.13 139.21 1155.84 139.59 C1153.29 140.35 1152.4 141.34 1150.61 143.25 C1148.63 143.96 1146.62 144.62 1144.61 145.25 C1143.13 146.24 1143.13 146.24 1141.61 147.25 C1138.96 147.44 1136.42 147.52 1133.77 147.5 C1132.96 147.51 1132.14 147.51 1131.31 147.51 C1128.55 147.52 1125.8 147.51 1123.05 147.51 C1121.06 147.51 1119.07 147.51 1117.08 147.52 C1111.56 147.52 1106.05 147.52 1100.54 147.51 C1094.56 147.51 1088.57 147.52 1082.59 147.52 C1072.1 147.53 1061.6 147.53 1051.1 147.53 C1039.83 147.53 1028.57 147.53 1017.3 147.53 C1016.59 147.53 1015.88 147.53 1015.15 147.53 C1012.25 147.54 1009.36 147.54 1006.46 147.54 C977.05 147.55 947.64 147.56 918.22 147.55 C914.16 147.55 910.09 147.55 906.02 147.55 C905.22 147.55 904.41 147.55 903.58 147.55 C885.69 147.55 867.81 147.55 849.92 147.56 C845.84 147.56 841.76 147.56 837.68 147.56 C836.04 147.56 834.4 147.56 832.76 147.56 C831.95 147.56 831.14 147.56 830.3 147.56 C828.66 147.56 827.02 147.56 825.38 147.56 C778.77 147.57 732.15 147.58 685.54 147.57 C684.68 147.57 683.82 147.57 682.93 147.57 C673.3 147.57 663.67 147.57 654.04 147.57 C653.17 147.57 652.3 147.57 651.4 147.57 C644.18 147.57 644.18 147.57 640.85 147.57 C585.23 147.56 529.61 147.57 473.99 147.59 C459.98 147.59 445.96 147.6 431.95 147.6 C431.09 147.6 430.22 147.6 429.34 147.6 C402.75 147.61 376.17 147.62 349.58 147.62 C348.75 147.62 347.92 147.62 347.06 147.62 C328.74 147.62 310.43 147.62 292.12 147.62 C285.57 147.62 279.01 147.61 272.46 147.61 C270.83 147.61 269.2 147.61 267.57 147.61 C241.57 147.61 215.57 147.62 189.57 147.63 C162.66 147.64 135.75 147.64 108.85 147.63 C105.96 147.63 103.07 147.63 100.19 147.63 C99.48 147.63 98.77 147.63 98.04 147.63 C86.8 147.62 75.56 147.63 64.33 147.64 C53.29 147.65 42.25 147.65 31.21 147.63 C25.3 147.63 19.39 147.63 13.48 147.64 C8.11 147.65 2.74 147.64 -2.63 147.63 C-4.56 147.63 -6.5 147.63 -8.44 147.64 C-11.06 147.65 -13.68 147.64 -16.29 147.63 C-17.05 147.63 -17.81 147.64 -18.58 147.65 C-23.08 147.6 -25.72 146.83 -29.39 144.25 C-31.37 143.54 -33.37 142.86 -35.39 142.25 C-35.39 141.59 -35.39 140.93 -35.39 140.25 C-36.03 140.14 -36.66 140.03 -37.32 139.92 C-38.15 139.76 -38.97 139.6 -39.83 139.44 C-41.06 139.21 -41.06 139.21 -42.32 138.98 C-43 138.74 -43.69 138.5 -44.39 138.25 C-44.72 137.26 -45.05 136.27 -45.39 135.25 C-45.72 135.91 -46.05 136.57 -46.39 137.25 C-48.04 136.59 -49.69 135.93 -51.39 135.25 C-51.39 134.59 -51.39 133.93 -51.39 133.25 C-52.19 132.98 -53 132.72 -53.83 132.44 C-55.09 131.85 -55.09 131.85 -56.39 131.25 C-56.72 130.26 -57.05 129.27 -57.39 128.25 C-58.7 127.55 -60.04 126.89 -61.39 126.25 C-66.08 122.93 -68.57 119.7 -70.39 114.25 C-71.05 114.25 -71.71 114.25 -72.39 114.25 C-73.39 111.25 -74.39 108.25 -75.39 105.25 C-76.05 105.25 -76.71 105.25 -77.39 105.25 C-77.72 102.61 -78.05 99.97 -78.39 97.25 C-79.38 97.25 -80.37 97.25 -81.39 97.25 C-81.39 82.07 -81.39 66.89 -81.39 51.25 C-80.4 51.25 -79.41 51.25 -78.39 51.25 C-78.34 50.66 -78.29 50.07 -78.24 49.46 C-77.66 43.33 -77.1 38.57 -72.39 34.25 C-71.73 33.26 -71.07 32.27 -70.39 31.25 C-69.73 31.25 -69.07 31.25 -68.39 31.25 C-67.4 27.79 -67.4 27.79 -66.39 24.25 C-65.4 24.25 -64.41 24.25 -63.39 24.25 C-63.72 23.59 -64.05 22.93 -64.39 22.25 C-63.75 22.15 -63.11 22.05 -62.45 21.94 C-61.77 21.71 -61.09 21.49 -60.39 21.25 C-60.06 20.26 -59.73 19.27 -59.39 18.25 C-57.98 16.85 -56.34 16.01 -54.64 15 C-51.89 13.33 -50.29 12.13 -48.2 9.63 C-43.54 5.69 -36.49 4.25 -30.39 4.25 C-30.39 3.59 -30.39 2.93 -30.39 2.25 C-20.31 -0.25 -10.3 -0.03 0 0 Z M1185.61 32.25 C1186.6 33.74 1186.6 33.74 1187.61 35.25 C1187.61 34.26 1187.61 33.27 1187.61 32.25 C1186.95 32.25 1186.29 32.25 1185.61 32.25 Z M-27.39 144.25 C-27.39 144.58 -27.39 144.91 -27.39 145.25 C-22.11 145.25 -16.83 145.25 -11.39 145.25 C-11.39 144.92 -11.39 144.59 -11.39 144.25 C-16.67 144.25 -21.95 144.25 -27.39 144.25 Z M1124.61 144.25 C1124.61 144.58 1124.61 144.91 1124.61 145.25 C1129.89 145.25 1135.17 145.25 1140.61 145.25 C1140.61 144.92 1140.61 144.59 1140.61 144.25 C1135.33 144.25 1130.05 144.25 1124.61 144.25 Z " fill="#1E3677" transform="translate(81.38765335083008,1063.7483177185059)"/>
<path d="M0 0 C0.81 -0 1.63 -0 2.46 -0.01 C5.22 -0.01 7.97 -0.01 10.72 -0 C12.71 -0.01 14.7 -0.01 16.69 -0.01 C22.21 -0.02 27.72 -0.01 33.23 -0.01 C39.21 -0.01 45.19 -0.02 51.18 -0.02 C61.67 -0.03 72.17 -0.03 82.67 -0.03 C93.93 -0.03 105.2 -0.04 116.47 -0.04 C117.53 -0.04 117.53 -0.04 118.62 -0.04 C121.52 -0.04 124.41 -0.04 127.31 -0.05 C161.6 -0.06 195.9 -0.07 230.19 -0.07 C247.26 -0.08 264.34 -0.08 281.41 -0.08 C336.14 -0.1 390.88 -0.11 445.61 -0.11 C448.23 -0.11 450.84 -0.11 453.46 -0.11 C458.71 -0.11 463.96 -0.11 469.21 -0.11 C475.35 -0.11 481.5 -0.11 487.64 -0.11 C489.4 -0.11 491.16 -0.11 492.92 -0.11 C549.41 -0.12 605.91 -0.13 662.41 -0.15 C703 -0.17 743.59 -0.19 784.18 -0.19 C785.44 -0.19 785.44 -0.19 786.71 -0.19 C805.03 -0.19 823.34 -0.19 841.65 -0.2 C848.2 -0.2 854.76 -0.2 861.31 -0.2 C862.94 -0.2 864.57 -0.2 866.2 -0.2 C892.2 -0.2 918.2 -0.21 944.2 -0.22 C970.38 -0.24 996.56 -0.24 1022.74 -0.23 C1026.35 -0.23 1029.97 -0.23 1033.58 -0.23 C1034.64 -0.23 1034.64 -0.23 1035.73 -0.23 C1046.97 -0.23 1058.21 -0.23 1069.44 -0.25 C1080.48 -0.26 1091.52 -0.26 1102.56 -0.25 C1108.47 -0.24 1114.38 -0.24 1120.29 -0.25 C1125.66 -0.26 1131.03 -0.26 1136.4 -0.25 C1138.33 -0.25 1140.27 -0.25 1142.21 -0.26 C1144.83 -0.27 1147.44 -0.26 1150.06 -0.25 C1151.2 -0.26 1151.2 -0.26 1152.35 -0.27 C1156.85 -0.22 1159.49 0.56 1163.16 3.13 C1166.22 3.99 1169.3 4.63 1172.41 5.28 C1175.28 6.17 1176.21 6.96 1178.16 9.13 C1179.15 9.46 1180.14 9.79 1181.16 10.13 C1184.18 11.14 1185.12 11.81 1187.16 14.13 C1188.24 14.9 1188.24 14.9 1189.34 15.69 C1190.24 16.4 1190.24 16.4 1191.16 17.13 C1191.16 17.79 1191.16 18.45 1191.16 19.13 C1192.02 19.49 1192.02 19.49 1192.9 19.86 C1199.12 23.35 1203.24 29.41 1205.16 36.13 C1207.15 38 1207.15 38 1209.16 39.13 C1208.91 39.71 1208.66 40.28 1208.41 40.88 C1208.32 41.62 1208.24 42.36 1208.16 43.13 C1209.45 44.5 1210.78 45.84 1212.16 47.13 C1212.16 48.12 1212.16 49.11 1212.16 50.13 C1213.15 50.13 1214.14 50.13 1215.16 50.13 C1215.16 65.31 1215.16 80.49 1215.16 96.13 C1214.17 96.13 1213.18 96.13 1212.16 96.13 C1211.83 97.78 1211.5 99.43 1211.16 101.13 C1210.5 101.13 1209.84 101.13 1209.16 101.13 C1208.83 102.12 1208.5 103.11 1208.16 104.13 C1207.5 104.13 1206.84 104.13 1206.16 104.13 C1206.49 104.97 1206.82 105.82 1207.16 106.69 C1207.16 110.13 1207.16 110.13 1205.51 111.87 C1204.05 113.06 1202.58 114.23 1201.1 115.39 C1198.55 117.67 1197.85 119.82 1197.16 123.13 C1196.83 123.79 1196.5 124.45 1196.16 125.13 C1195.5 125.13 1194.84 125.13 1194.16 125.13 C1193.83 125.79 1193.5 126.45 1193.16 127.13 C1191.16 129.13 1191.16 129.13 1188.34 129.94 C1184.99 130.94 1184.99 130.94 1182.59 133.69 C1179.99 136.29 1178.75 136.82 1175.16 137.13 C1174.83 138.45 1174.5 139.77 1174.16 141.13 C1173.5 141.25 1172.85 141.37 1172.18 141.49 C1167.37 142.42 1162.77 143.43 1158.16 145.13 C1158.16 145.46 1158.16 145.79 1158.16 146.13 C1153.81 147.2 1149.58 147.27 1145.13 147.25 C1144.32 147.25 1143.51 147.26 1142.68 147.26 C1139.96 147.26 1137.23 147.26 1134.5 147.25 C1132.53 147.25 1130.55 147.26 1128.58 147.26 C1123.12 147.26 1117.65 147.26 1112.19 147.26 C1106.26 147.25 1100.33 147.26 1094.4 147.26 C1084 147.26 1073.6 147.26 1063.2 147.26 C1052.03 147.26 1040.87 147.26 1029.7 147.26 C1029 147.26 1028.29 147.26 1027.57 147.26 C1024.7 147.26 1021.83 147.26 1018.96 147.26 C992.21 147.27 965.47 147.27 938.72 147.26 C937.93 147.26 937.14 147.26 936.32 147.26 C935.53 147.26 934.73 147.26 933.92 147.26 C909.74 147.26 885.57 147.26 861.39 147.26 C859.78 147.26 858.16 147.26 856.54 147.26 C850.04 147.26 843.54 147.26 837.04 147.26 C818.87 147.26 800.7 147.26 782.53 147.26 C781.28 147.26 781.28 147.26 780.02 147.26 C753.64 147.26 727.26 147.26 700.89 147.26 C700.03 147.26 699.17 147.26 698.29 147.26 C684.39 147.26 670.5 147.26 656.6 147.26 C601.48 147.25 546.35 147.25 491.23 147.26 C477.34 147.26 463.45 147.26 449.56 147.26 C448.28 147.26 448.28 147.26 446.97 147.26 C420.62 147.26 394.27 147.26 367.92 147.26 C367.1 147.26 366.27 147.26 365.42 147.26 C347.27 147.26 329.11 147.26 310.96 147.26 C304.47 147.26 297.97 147.26 291.48 147.26 C289.86 147.26 288.25 147.26 286.63 147.26 C262.46 147.26 238.3 147.26 214.13 147.26 C213.33 147.26 212.54 147.26 211.72 147.26 C210.54 147.26 210.54 147.26 209.33 147.26 C182.66 147.27 155.99 147.27 129.33 147.26 C126.47 147.26 123.61 147.26 120.74 147.26 C119.69 147.26 119.69 147.26 118.62 147.26 C107.48 147.26 96.34 147.26 85.21 147.26 C74.27 147.26 63.33 147.26 52.39 147.26 C46.53 147.26 40.67 147.25 34.82 147.26 C29.5 147.26 24.18 147.26 18.85 147.26 C16.94 147.25 15.02 147.25 13.1 147.26 C10.5 147.26 7.9 147.26 5.31 147.25 C4.56 147.26 3.82 147.26 3.05 147.26 C-7.52 147.22 -7.52 147.22 -10.66 144.63 C-13.61 142.6 -16.2 142.68 -19.72 142.53 C-22.36 142.03 -23.03 141.05 -24.84 139.13 C-27.07 137.99 -27.07 137.99 -29.47 137.07 C-33.73 135.35 -33.73 135.35 -34.84 133.13 C-35.93 132.79 -35.93 132.79 -37.03 132.44 C-40.48 130.83 -42.01 128.79 -44.35 125.87 C-45.93 123.91 -45.93 123.91 -48.66 121.94 C-51.09 119.92 -51.23 119.09 -51.84 116.13 C-52.83 115.8 -53.82 115.47 -54.84 115.13 C-55.87 112.81 -56.87 110.47 -57.84 108.13 C-58.61 107.42 -58.61 107.42 -59.39 106.69 C-61.3 104.63 -61.33 103.21 -61.53 100.44 C-61.6 99.63 -61.66 98.82 -61.73 97.99 C-61.77 97.38 -61.8 96.76 -61.84 96.13 C-62.83 96.13 -63.82 96.13 -64.84 96.13 C-64.84 80.95 -64.84 65.77 -64.84 50.13 C-63.85 50.13 -62.86 50.13 -61.84 50.13 C-62.17 48.48 -62.5 46.83 -62.84 45.13 C-62.18 45.13 -61.52 45.13 -60.84 45.13 C-60.69 43.46 -60.69 43.46 -60.53 41.75 C-60.3 40.56 -60.08 39.36 -59.84 38.13 C-58.85 37.47 -57.86 36.81 -56.84 36.13 C-56.51 35.12 -56.18 34.11 -55.84 33.07 C-55.51 32.1 -55.18 31.13 -54.84 30.13 C-53.85 29.8 -52.86 29.47 -51.84 29.13 C-51.7 28.49 -51.55 27.85 -51.41 27.19 C-51.22 26.51 -51.03 25.83 -50.84 25.13 C-49.52 24.44 -48.18 23.78 -46.84 23.13 C-45.58 21.09 -45.58 21.09 -44.84 19.13 C-43.52 19.13 -42.2 19.13 -40.84 19.13 C-40.7 18.34 -40.55 17.56 -40.41 16.75 C-39.84 14.13 -39.84 14.13 -38.84 12.13 C-36.55 11.25 -34.23 10.59 -31.87 9.91 C-29.66 9.32 -29.66 9.32 -28.84 7.13 C-26.38 6.38 -23.97 5.72 -21.47 5.13 C-15.9 3.79 -15.9 3.79 -10.84 1.13 C-7.18 -0.09 -3.81 -0.01 0 0 Z M-37.84 13.13 C-38.17 13.79 -38.5 14.45 -38.84 15.13 C-37.85 14.8 -36.86 14.47 -35.84 14.13 C-36.5 13.8 -37.16 13.47 -37.84 13.13 Z M-53.84 113.13 C-53.84 113.79 -53.84 114.45 -53.84 115.13 C-53.18 114.8 -52.52 114.47 -51.84 114.13 C-52.5 113.8 -53.16 113.47 -53.84 113.13 Z M1194.16 121.13 C1195.16 123.13 1195.16 123.13 1195.16 123.13 Z M1188.16 126.13 C1188.49 126.79 1188.82 127.45 1189.16 128.13 C1189.49 127.47 1189.82 126.81 1190.16 126.13 C1189.5 126.13 1188.84 126.13 1188.16 126.13 Z M1166.16 138.13 C1166.16 138.79 1166.16 139.45 1166.16 140.13 C1167.15 139.8 1168.14 139.47 1169.16 139.13 C1168.17 138.8 1167.18 138.47 1166.16 138.13 Z M-22.84 139.13 C-22.84 139.46 -22.84 139.79 -22.84 140.13 C-20.53 140.13 -18.22 140.13 -15.84 140.13 C-15.84 139.8 -15.84 139.47 -15.84 139.13 C-18.15 139.13 -20.46 139.13 -22.84 139.13 Z M1164.16 140.13 C1164.49 140.79 1164.82 141.45 1165.16 142.13 C1165.49 141.47 1165.82 140.81 1166.16 140.13 C1165.5 140.13 1164.84 140.13 1164.16 140.13 Z " fill="#1E3678" transform="translate(64.84326827526093,68.87234950065613)"/>
<path d="M0 0 C0.66 0.33 1.32 0.66 2 1 C4 1.04 6 1.04 8 1 C8 0.67 8 0.34 8 0 C42.82 -0.01 77.63 -0.01 112.45 -0.02 C113.13 -0.02 113.81 -0.02 114.51 -0.02 C187.49 -0.03 260.46 -0.04 333.44 -0.04 C335.06 -0.04 336.68 -0.04 338.3 -0.04 C372.31 -0.05 406.32 -0.05 440.33 -0.05 C457.41 -0.05 474.49 -0.05 491.57 -0.05 C494.15 -0.05 496.73 -0.06 499.31 -0.06 C539 -0.06 578.7 -0.06 618.4 -0.07 C619.68 -0.07 619.68 -0.07 620.99 -0.07 C634.76 -0.07 648.52 -0.07 662.29 -0.08 C701.94 -0.08 741.58 -0.09 781.23 -0.09 C782.04 -0.09 782.86 -0.09 783.7 -0.09 C801.58 -0.09 819.46 -0.09 837.34 -0.09 C844.53 -0.09 851.73 -0.09 858.92 -0.09 C859.71 -0.09 860.5 -0.09 861.31 -0.09 C886.71 -0.1 912.11 -0.1 937.51 -0.11 C963.08 -0.11 988.65 -0.12 1014.22 -0.11 C1017.75 -0.11 1021.27 -0.11 1024.8 -0.11 C1025.49 -0.11 1026.19 -0.11 1026.9 -0.11 C1037.88 -0.11 1048.86 -0.12 1059.84 -0.12 C1070.63 -0.12 1081.41 -0.12 1092.19 -0.12 C1097.96 -0.12 1103.74 -0.12 1109.51 -0.12 C1114.75 -0.13 1119.99 -0.13 1125.23 -0.12 C1127.13 -0.12 1129.03 -0.12 1130.92 -0.13 C1133.47 -0.13 1136.03 -0.13 1138.58 -0.12 C1139.7 -0.13 1139.7 -0.13 1140.84 -0.13 C1145.89 -0.11 1145.89 -0.11 1147 1 C1148.54 1.18 1150.08 1.3 1151.63 1.39 C1152.58 1.46 1153.54 1.53 1154.52 1.6 C1156.52 1.74 1158.52 1.87 1160.53 1.99 C1166.12 2.41 1170.35 3.25 1175.24 6.03 C1177.17 7.17 1177.17 7.17 1180.18 8.01 C1188.14 10.81 1194.75 18.57 1200.69 24.44 C1201.22 24.96 1201.75 25.48 1202.29 26.01 C1206 29.75 1206 29.75 1206 32 C1206.66 32 1207.32 32 1208 32 C1211.01 36.71 1212.56 40.55 1213.41 46.08 C1213.9 48.39 1213.9 48.39 1217 50 C1217.66 50 1218.32 50 1219 50 C1219 65.18 1219 80.36 1219 96 C1218.01 96 1217.02 96 1216 96 C1216 96.99 1216 97.98 1216 99 C1215.34 99 1214.68 99 1214 99 C1213.98 99.84 1213.98 99.84 1213.96 100.69 C1213.58 106.74 1212.05 111.37 1208 116 C1207.34 116 1206.68 116 1206 116 C1205.75 116.58 1205.5 117.15 1205.25 117.75 C1203.82 120.32 1202.18 122.02 1200.06 124.06 C1199.37 124.73 1198.68 125.41 1197.97 126.1 C1197.32 126.73 1196.67 127.35 1196 128 C1195.46 128.58 1194.92 129.15 1194.37 129.75 C1193 131 1193 131 1191 131 C1191 131.66 1191 132.32 1191 133 C1187.15 135.93 1183.57 137.51 1179 139 C1178.67 139.66 1178.34 140.32 1178 141 C1173.38 142.82 1168.07 141.86 1163.21 141.64 C1162.15 141.76 1161.09 141.88 1160 142 C1159.52 142.65 1159.04 143.3 1158.55 143.98 C1157 146 1157 146 1155.18 146.6 C1146.16 147.17 1137.13 147.14 1128.09 147.13 C1126.15 147.13 1124.2 147.13 1122.26 147.13 C1116.92 147.14 1111.57 147.14 1106.22 147.13 C1100.41 147.13 1094.6 147.14 1088.78 147.14 C1077.92 147.15 1067.06 147.15 1056.2 147.15 C1045.93 147.14 1035.67 147.15 1025.4 147.15 C1024.71 147.15 1024.02 147.15 1023.31 147.15 C1020.49 147.15 1017.68 147.15 1014.86 147.15 C985.51 147.16 956.15 147.17 926.8 147.17 C923.64 147.17 920.48 147.17 917.32 147.17 C916.14 147.17 916.14 147.17 914.94 147.17 C897.56 147.17 880.18 147.17 862.81 147.17 C855.65 147.17 848.49 147.17 841.33 147.18 C840.54 147.18 839.75 147.18 838.94 147.18 C793.61 147.18 748.29 147.19 702.97 147.19 C701.27 147.19 699.58 147.19 697.88 147.19 C690.22 147.19 682.57 147.19 674.91 147.19 C671.5 147.19 668.08 147.19 664.67 147.19 C662.96 147.19 661.25 147.19 659.54 147.19 C605.51 147.18 551.49 147.19 497.46 147.21 C483.85 147.21 470.25 147.21 456.64 147.22 C455.8 147.22 454.96 147.22 454.1 147.22 C428.26 147.22 402.42 147.23 376.59 147.23 C375.37 147.23 375.37 147.23 374.13 147.23 C356.31 147.23 338.5 147.23 320.68 147.23 C314.31 147.23 307.93 147.23 301.56 147.23 C299.97 147.23 298.39 147.23 296.8 147.23 C271.55 147.23 246.3 147.23 221.06 147.24 C195.62 147.25 170.18 147.25 144.74 147.25 C141.22 147.25 137.7 147.25 134.18 147.24 C133.49 147.24 132.8 147.24 132.09 147.24 C121.85 147.24 111.62 147.25 101.39 147.25 C89.99 147.26 78.59 147.26 67.19 147.25 C61.46 147.25 55.73 147.25 49.99 147.26 C44.76 147.26 39.53 147.26 34.31 147.25 C32.44 147.25 30.57 147.25 28.7 147.26 C18.87 147.28 9.09 147.02 -0.71 146.3 C-1.61 146.24 -2.5 146.19 -3.43 146.14 C-9.88 145.59 -16.28 143.72 -21 139 C-21.66 139.33 -22.32 139.66 -23 140 C-23.99 139.2 -23.99 139.2 -25 138.38 C-26.58 137.13 -28.16 135.88 -29.8 134.71 C-35.43 130.67 -40.19 125.98 -45 121 C-45.87 120.19 -45.87 120.19 -46.76 119.36 C-48 118 -48 118 -48 116 C-48.66 116 -49.32 116 -50 116 C-54.73 110.06 -57.86 104.63 -58 97 C-58.99 97 -59.98 97 -61 97 C-61 81.49 -61 65.98 -61 50 C-60.01 50 -59.02 50 -58 50 C-57.34 46.37 -56.68 42.74 -56 39 C-55.34 39 -54.68 39 -54 39 C-53.77 38.41 -53.54 37.82 -53.3 37.21 C-51.2 32.11 -49.2 28.71 -45 25 C-43.89 23.86 -42.79 22.71 -41.69 21.56 C-38.56 18.42 -35.22 15.81 -31.6 13.26 C-29.86 12.07 -29.86 12.07 -29 10 C-26.7 9.36 -24.39 8.98 -22.03 8.56 C-21.03 8.28 -21.03 8.28 -20 8 C-19.67 7.34 -19.34 6.68 -19 6 C-18.01 6.33 -17.02 6.66 -16 7 C-16 6.34 -16 5.68 -16 5 C-12.6 2.97 -9.68 2.63 -5.75 2.38 C-4.67 2.3 -3.59 2.23 -2.48 2.15 C-1.66 2.1 -0.84 2.05 0 2 C0 1.34 0 0.68 0 0 Z M1168 140 C1168 140.33 1168 140.66 1168 141 C1169.65 141 1171.3 141 1173 141 C1173 140.67 1173 140.34 1173 140 C1171.35 140 1169.7 140 1168 140 Z " fill="#1F3779" transform="translate(61,566)"/>
<path d="M0 0 C2 -0 4 -0.01 5.99 -0.02 C11.5 -0.03 17 -0.02 22.51 -0.01 C28.49 0 34.47 -0.01 40.45 -0.02 C50.94 -0.03 61.43 -0.03 71.92 -0.02 C83.18 -0 94.43 -0 105.69 -0.01 C106.75 -0.01 106.75 -0.01 107.84 -0.01 C110.74 -0.01 113.63 -0.01 116.53 -0.01 C143.5 -0.03 170.47 -0.03 197.43 -0.01 C223.42 -0 249.41 0.01 275.4 0 C277.03 0 278.66 0 280.29 0 C286.85 0 293.41 0 299.96 0 C318.29 -0 336.62 -0 354.94 -0 C355.78 -0 356.61 -0 357.47 -0 C384.07 -0 410.66 0.01 437.26 0.02 C438.12 0.02 438.98 0.02 439.87 0.02 C453.88 0.02 467.89 0.03 481.91 0.04 C537.49 0.06 593.07 0.06 648.64 0.05 C652.16 0.05 655.67 0.05 659.18 0.05 C660.05 0.05 660.92 0.05 661.82 0.05 C671.43 0.05 681.05 0.05 690.67 0.05 C691.53 0.05 692.39 0.05 693.28 0.05 C739 0.04 784.72 0.04 830.44 0.06 C836.99 0.06 843.53 0.06 850.08 0.06 C852.53 0.06 854.97 0.06 857.41 0.06 C875.29 0.07 893.16 0.07 911.04 0.06 C911.84 0.06 912.65 0.06 913.48 0.06 C917.54 0.06 921.6 0.06 925.66 0.06 C954.96 0.06 984.27 0.06 1013.58 0.08 C1016.46 0.08 1019.35 0.09 1022.23 0.09 C1023.29 0.09 1023.29 0.09 1024.38 0.09 C1035.61 0.1 1046.83 0.09 1058.06 0.09 C1069.09 0.08 1080.12 0.09 1091.15 0.1 C1097.05 0.11 1102.96 0.11 1108.86 0.1 C1114.23 0.09 1119.59 0.1 1124.95 0.12 C1126.89 0.12 1128.83 0.12 1130.76 0.11 C1133.38 0.1 1135.99 0.11 1138.61 0.12 C1139.36 0.12 1140.12 0.11 1140.9 0.1 C1145.38 0.15 1148.05 0.91 1151.7 3.5 C1153.89 4.2 1153.89 4.2 1155.7 4.5 C1155.7 5.16 1155.7 5.82 1155.7 6.5 C764.65 6.5 373.6 6.5 -29.3 6.5 C-27.81 3.51 -25.44 2.61 -22.45 1.35 C-15.21 -0.61 -7.45 -0.04 0 0 Z " fill="#1B3062" transform="translate(76.30331802368164,68.49942874908447)"/>
<path d="M0 0 C1.99 -0 3.98 -0 5.96 -0.01 C11.41 -0.01 16.86 -0.01 22.31 -0.01 C28.24 -0 34.18 -0.01 40.11 -0.01 C50.5 -0.02 60.9 -0.02 71.29 -0.02 C82.44 -0.02 93.59 -0.02 104.74 -0.02 C105.44 -0.02 106.15 -0.02 106.87 -0.02 C109.74 -0.02 112.62 -0.02 115.49 -0.02 C145.42 -0.03 175.35 -0.04 205.27 -0.04 C208.49 -0.04 211.71 -0.04 214.93 -0.04 C215.73 -0.04 216.53 -0.04 217.35 -0.04 C235.06 -0.04 252.77 -0.04 270.48 -0.04 C277.77 -0.04 285.07 -0.05 292.36 -0.05 C293.17 -0.05 293.97 -0.05 294.8 -0.05 C340.97 -0.05 387.14 -0.06 433.31 -0.06 C435.03 -0.06 436.76 -0.06 438.49 -0.06 C446.29 -0.06 454.08 -0.06 461.88 -0.06 C465.36 -0.06 468.83 -0.06 472.31 -0.06 C474.05 -0.06 475.79 -0.06 477.53 -0.06 C532.6 -0.06 587.67 -0.06 642.74 -0.08 C656.62 -0.08 670.51 -0.08 684.39 -0.09 C685.24 -0.09 686.1 -0.09 686.98 -0.09 C713.31 -0.09 739.65 -0.1 765.98 -0.1 C766.81 -0.1 767.64 -0.1 768.49 -0.1 C786.63 -0.1 804.76 -0.1 822.9 -0.1 C829.39 -0.1 835.88 -0.1 842.37 -0.1 C843.99 -0.1 845.6 -0.1 847.21 -0.1 C872.96 -0.1 898.71 -0.11 924.46 -0.11 C950.37 -0.12 976.29 -0.13 1002.2 -0.12 C1005.78 -0.12 1009.36 -0.12 1012.93 -0.12 C1013.63 -0.12 1014.34 -0.12 1015.06 -0.12 C1026.18 -0.11 1037.31 -0.12 1048.43 -0.12 C1059.36 -0.13 1070.28 -0.13 1081.21 -0.12 C1087.06 -0.12 1092.91 -0.12 1098.76 -0.13 C1104.07 -0.13 1109.38 -0.13 1114.69 -0.12 C1116.61 -0.12 1118.53 -0.12 1120.45 -0.13 C1123.04 -0.13 1125.63 -0.13 1128.22 -0.12 C1129.35 -0.13 1129.35 -0.13 1130.49 -0.14 C1134.19 -0.11 1136.97 0.08 1140.11 2.13 C1140.11 2.79 1140.11 3.45 1140.11 4.13 C751.7 3.8 363.29 3.47 -36.89 3.13 C-30.51 -3.25 -8.77 -0.01 0 0 Z " fill="#2C50A1" transform="translate(88.8882246017456,1065.8713655471802)"/>
<path d="M0 0 C1.98 -0 3.97 -0 5.95 -0.01 C11.39 -0.01 16.82 -0.01 22.26 -0.01 C28.17 -0 34.09 -0.01 40.01 -0.01 C50.38 -0.02 60.75 -0.02 71.11 -0.02 C82.23 -0.02 93.35 -0.02 104.47 -0.02 C105.17 -0.02 105.88 -0.02 106.6 -0.02 C109.47 -0.02 112.33 -0.02 115.2 -0.02 C145.05 -0.03 174.9 -0.04 204.75 -0.04 C207.96 -0.04 211.17 -0.04 214.38 -0.04 C215.18 -0.04 215.97 -0.04 216.79 -0.04 C234.46 -0.04 252.12 -0.04 269.78 -0.04 C277.06 -0.04 284.34 -0.05 291.61 -0.05 C292.42 -0.05 293.22 -0.05 294.05 -0.05 C340.09 -0.05 386.14 -0.06 432.19 -0.06 C433.91 -0.06 435.63 -0.06 437.36 -0.06 C445.13 -0.06 452.91 -0.06 460.68 -0.06 C464.15 -0.06 467.62 -0.06 471.09 -0.06 C472.82 -0.06 474.56 -0.06 476.29 -0.06 C531.22 -0.06 586.14 -0.06 641.07 -0.08 C654.92 -0.08 668.77 -0.08 682.62 -0.09 C683.47 -0.09 684.32 -0.09 685.2 -0.09 C711.47 -0.09 737.74 -0.1 764 -0.1 C765.24 -0.1 765.24 -0.1 766.5 -0.1 C784.59 -0.1 802.68 -0.1 820.77 -0.1 C827.24 -0.1 833.72 -0.1 840.19 -0.1 C841.8 -0.1 843.41 -0.1 845.02 -0.1 C870.7 -0.1 896.38 -0.11 922.06 -0.11 C947.91 -0.12 973.76 -0.13 999.6 -0.12 C1003.17 -0.12 1006.74 -0.12 1010.31 -0.12 C1011.35 -0.12 1011.35 -0.12 1012.42 -0.12 C1023.52 -0.11 1034.62 -0.12 1045.71 -0.12 C1056.61 -0.13 1067.51 -0.13 1078.4 -0.12 C1084.24 -0.12 1090.07 -0.12 1095.91 -0.13 C1101.2 -0.13 1106.5 -0.13 1111.8 -0.12 C1113.71 -0.12 1115.63 -0.12 1117.54 -0.13 C1120.12 -0.13 1122.7 -0.13 1125.29 -0.12 C1126.41 -0.13 1126.41 -0.13 1127.56 -0.14 C1131.27 -0.11 1132.86 0.01 1136.03 2.13 C1132.37 3.35 1129 3.27 1125.19 3.26 C1124.37 3.26 1123.56 3.26 1122.72 3.26 C1119.97 3.26 1117.22 3.26 1114.46 3.26 C1112.47 3.26 1110.48 3.26 1108.49 3.26 C1102.97 3.27 1097.46 3.27 1091.95 3.26 C1085.96 3.26 1079.98 3.27 1074 3.27 C1063.5 3.27 1053 3.28 1042.5 3.27 C1031.23 3.27 1019.95 3.27 1008.68 3.28 C1007.97 3.28 1007.26 3.28 1006.53 3.28 C1003.63 3.28 1000.74 3.28 997.84 3.28 C967.61 3.29 937.38 3.3 907.15 3.3 C903.89 3.3 900.63 3.3 897.38 3.3 C896.57 3.3 895.76 3.3 894.93 3.3 C877.04 3.3 859.15 3.3 841.26 3.3 C833.9 3.3 826.54 3.3 819.18 3.3 C818.37 3.3 817.55 3.3 816.72 3.3 C770.1 3.31 723.48 3.31 676.86 3.31 C675.11 3.31 673.37 3.31 671.62 3.31 C663.74 3.31 655.86 3.31 647.98 3.31 C644.47 3.31 640.95 3.31 637.44 3.31 C635.68 3.31 633.92 3.31 632.16 3.31 C576.53 3.31 520.9 3.32 465.26 3.33 C451.24 3.34 437.23 3.34 423.21 3.34 C422.34 3.34 421.48 3.35 420.59 3.35 C394 3.35 367.41 3.36 340.82 3.36 C339.57 3.36 339.57 3.36 338.29 3.36 C319.98 3.36 301.66 3.36 283.35 3.36 C276.8 3.36 270.24 3.36 263.69 3.36 C262.06 3.36 260.43 3.36 258.8 3.36 C232.79 3.36 206.78 3.36 180.78 3.37 C154.59 3.38 128.41 3.38 102.22 3.38 C98.61 3.37 95 3.37 91.38 3.37 C90.67 3.37 89.96 3.37 89.23 3.37 C77.99 3.37 66.75 3.37 55.51 3.38 C44.47 3.39 33.43 3.39 22.39 3.38 C16.47 3.38 10.56 3.38 4.65 3.38 C-0.72 3.39 -6.09 3.39 -11.45 3.38 C-13.39 3.38 -15.33 3.38 -17.27 3.39 C-19.89 3.39 -22.51 3.39 -25.12 3.38 C-25.88 3.38 -26.64 3.39 -27.43 3.39 C-31.16 3.37 -32.78 3.26 -35.97 1.13 C-23.96 0.21 -12.04 -0.01 0 0 Z " fill="#000002" transform="translate(89.96721363067627,1207.8713655471802)"/>
<path d="M0 0 C1.95 -0 3.9 -0 5.85 -0 C11.19 -0.01 16.54 -0.01 21.88 -0 C27.7 -0 33.52 -0 39.34 -0.01 C50.2 -0.01 61.07 -0.01 71.93 -0.01 C82.2 -0 92.46 -0 102.73 -0.01 C103.77 -0.01 103.77 -0.01 104.82 -0.01 C107.64 -0.01 110.46 -0.01 113.27 -0.01 C139.49 -0.01 165.71 -0.01 191.93 -0.01 C193.09 -0.01 193.09 -0.01 194.28 -0.01 C195.06 -0.01 195.83 -0.01 196.64 -0.01 C220.33 -0.01 244.03 -0.01 267.73 -0.01 C269.32 -0.01 270.9 -0.01 272.49 -0.01 C278.87 -0.01 285.25 -0.01 291.63 -0.01 C309.46 -0.01 327.29 -0.01 345.12 -0.01 C345.94 -0.01 346.75 -0.01 347.58 -0.01 C373.46 -0.01 399.33 -0.01 425.2 -0.01 C426.04 -0.01 426.88 -0.01 427.74 -0.01 C441.37 -0.01 454.99 -0.01 468.62 -0 C522.65 0 576.69 0 630.72 -0 C644.33 -0.01 657.95 -0.01 671.56 -0.01 C672.82 -0.01 672.82 -0.01 674.11 -0.01 C699.95 -0.01 725.79 -0.01 751.63 -0.01 C752.85 -0.01 752.85 -0.01 754.09 -0.01 C771.91 -0.01 789.72 -0.01 807.53 -0.01 C813.91 -0.01 820.28 -0.01 826.66 -0.01 C828.24 -0.01 829.83 -0.01 831.41 -0.01 C855.1 -0.01 878.79 -0.01 902.48 -0.01 C903.64 -0.01 903.64 -0.01 904.83 -0.01 C905.99 -0.01 905.99 -0.01 907.18 -0.01 C933.32 -0.01 959.47 -0.01 985.62 -0.01 C988.43 -0.01 991.24 -0.01 994.04 -0.01 C995.08 -0.01 995.08 -0.01 996.13 -0.01 C1006.37 -0 1016.61 -0 1026.85 -0.01 C1038.24 -0.01 1049.64 -0.01 1061.03 -0 C1066.77 -0 1072.5 -0 1078.24 -0 C1083.46 -0.01 1088.69 -0.01 1093.91 -0 C1095.78 -0 1097.66 -0 1099.53 -0 C1110.92 -0.02 1122.22 0.32 1133.58 1.13 C1133.58 1.46 1133.58 1.79 1133.58 2.13 C1129.24 3.2 1125.01 3.27 1120.56 3.25 C1119.75 3.25 1118.94 3.25 1118.11 3.26 C1115.38 3.26 1112.66 3.26 1109.93 3.25 C1107.96 3.25 1105.98 3.25 1104 3.26 C1098.54 3.26 1093.08 3.26 1087.62 3.25 C1081.69 3.25 1075.76 3.26 1069.83 3.26 C1059.43 3.26 1049.03 3.26 1038.62 3.26 C1027.46 3.26 1016.29 3.26 1005.13 3.26 C1004.42 3.26 1003.72 3.26 1002.99 3.26 C1000.12 3.26 997.25 3.26 994.38 3.26 C967.64 3.26 940.9 3.26 914.15 3.26 C913.36 3.26 912.57 3.26 911.75 3.26 C910.96 3.26 910.16 3.26 909.34 3.26 C885.17 3.26 860.99 3.26 836.82 3.26 C835.2 3.26 833.59 3.26 831.97 3.26 C825.47 3.26 818.97 3.26 812.47 3.26 C794.3 3.26 776.12 3.26 757.95 3.26 C756.71 3.26 756.71 3.26 755.45 3.26 C729.07 3.26 702.69 3.26 676.31 3.26 C675.46 3.26 674.6 3.26 673.72 3.26 C659.82 3.26 645.92 3.26 632.02 3.26 C576.9 3.25 521.78 3.25 466.66 3.26 C452.77 3.26 438.88 3.26 424.99 3.26 C423.71 3.26 423.71 3.26 422.4 3.26 C396.05 3.26 369.7 3.26 343.35 3.26 C342.52 3.26 341.7 3.26 340.84 3.26 C322.69 3.26 304.54 3.26 286.39 3.26 C279.89 3.26 273.4 3.26 266.91 3.26 C265.29 3.26 263.67 3.26 262.06 3.26 C237.89 3.26 213.72 3.26 189.55 3.26 C188.36 3.26 188.36 3.26 187.15 3.26 C185.96 3.26 185.96 3.26 184.75 3.26 C158.09 3.27 131.42 3.26 104.75 3.26 C101.89 3.26 99.03 3.26 96.17 3.26 C95.12 3.26 95.12 3.26 94.04 3.26 C82.91 3.25 71.77 3.26 60.63 3.26 C49.69 3.26 38.75 3.26 27.81 3.26 C21.96 3.25 16.1 3.25 10.24 3.26 C4.92 3.26 -0.4 3.26 -5.72 3.25 C-7.64 3.25 -9.56 3.25 -11.48 3.26 C-14.07 3.26 -16.67 3.26 -19.26 3.25 C-20.01 3.25 -20.76 3.26 -21.53 3.26 C-25.59 3.24 -29.43 2.91 -33.42 2.13 C-33.42 1.8 -33.42 1.47 -33.42 1.13 C-22.26 0.12 -11.19 -0.02 0 0 Z " fill="#000002" transform="translate(89.41651630401611,212.87415885925293)"/>
<path d="M0 0 C34.82 -0.01 69.63 -0.01 104.45 -0.02 C105.13 -0.02 105.81 -0.02 106.51 -0.02 C179.49 -0.03 252.46 -0.04 325.44 -0.04 C327.06 -0.04 328.68 -0.04 330.3 -0.04 C364.31 -0.05 398.32 -0.05 432.33 -0.05 C449.41 -0.05 466.49 -0.05 483.57 -0.05 C486.15 -0.05 488.73 -0.06 491.31 -0.06 C531 -0.06 570.7 -0.06 610.4 -0.07 C611.68 -0.07 611.68 -0.07 612.99 -0.07 C626.76 -0.07 640.52 -0.07 654.29 -0.08 C693.94 -0.08 733.58 -0.09 773.23 -0.09 C774.04 -0.09 774.86 -0.09 775.7 -0.09 C793.58 -0.09 811.46 -0.09 829.34 -0.09 C836.53 -0.09 843.73 -0.09 850.92 -0.09 C851.71 -0.09 852.5 -0.09 853.31 -0.09 C878.71 -0.1 904.11 -0.1 929.51 -0.11 C955.08 -0.11 980.65 -0.12 1006.22 -0.11 C1009.75 -0.11 1013.27 -0.11 1016.8 -0.11 C1017.49 -0.11 1018.19 -0.11 1018.9 -0.11 C1029.88 -0.11 1040.86 -0.12 1051.84 -0.12 C1062.63 -0.12 1073.41 -0.12 1084.19 -0.12 C1089.96 -0.12 1095.74 -0.12 1101.51 -0.12 C1106.75 -0.13 1111.99 -0.13 1117.23 -0.12 C1119.13 -0.12 1121.03 -0.12 1122.92 -0.13 C1125.47 -0.13 1128.03 -0.13 1130.58 -0.12 C1131.7 -0.13 1131.7 -0.13 1132.84 -0.13 C1137.89 -0.11 1137.89 -0.11 1139 1 C1140.68 1.23 1142.37 1.41 1144.06 1.56 C1144.98 1.65 1145.9 1.73 1146.85 1.82 C1147.56 1.88 1148.27 1.94 1149 2 C1149 2.33 1149 2.66 1149 3 C767.52 3.33 386.04 3.66 -7 4 C-7 3.34 -7 2.68 -7 2 C-3.53 1.5 -3.53 1.5 0 1 C0 0.67 0 0.34 0 0 Z " fill="#2D51A2" transform="translate(69,566)"/>
<path d="M0 0 C0 0.66 0 1.32 0 2 C-3.94 3.29 -7.92 3.14 -12.03 3.13 C-12.85 3.14 -13.67 3.14 -14.51 3.14 C-17.28 3.15 -20.06 3.15 -22.83 3.14 C-24.84 3.15 -26.84 3.15 -28.85 3.15 C-34.4 3.16 -39.96 3.17 -45.51 3.17 C-51.54 3.17 -57.57 3.18 -63.59 3.19 C-74.17 3.21 -84.75 3.22 -95.33 3.22 C-106.68 3.23 -118.03 3.24 -129.38 3.26 C-130.1 3.26 -130.82 3.26 -131.55 3.26 C-134.47 3.26 -137.39 3.27 -140.3 3.27 C-170.76 3.31 -201.21 3.33 -231.67 3.36 C-234.95 3.36 -238.23 3.37 -241.51 3.37 C-242.32 3.37 -243.14 3.37 -243.97 3.37 C-261.99 3.39 -280.02 3.4 -298.04 3.42 C-305.45 3.43 -312.87 3.44 -320.29 3.44 C-321.52 3.45 -321.52 3.45 -322.77 3.45 C-369.74 3.49 -416.7 3.54 -463.67 3.58 C-465.43 3.58 -467.19 3.58 -468.95 3.58 C-476.89 3.59 -484.82 3.59 -492.76 3.6 C-496.3 3.6 -499.84 3.61 -503.38 3.61 C-505.16 3.61 -506.93 3.61 -508.7 3.61 C-564.74 3.66 -620.79 3.72 -676.83 3.78 C-690.95 3.79 -705.07 3.81 -719.19 3.82 C-720.06 3.83 -720.93 3.83 -721.83 3.83 C-748.62 3.86 -775.4 3.88 -802.19 3.91 C-803.45 3.91 -803.45 3.91 -804.74 3.91 C-823.19 3.93 -841.64 3.94 -860.1 3.96 C-866.7 3.96 -873.3 3.97 -879.9 3.97 C-881.54 3.98 -883.19 3.98 -884.83 3.98 C-911.03 4 -937.23 4.03 -963.43 4.06 C-989.8 4.09 -1016.18 4.12 -1042.56 4.13 C-1046.2 4.13 -1049.84 4.14 -1053.49 4.14 C-1054.56 4.14 -1054.56 4.14 -1055.65 4.14 C-1066.97 4.15 -1078.3 4.16 -1089.62 4.18 C-1100.74 4.19 -1111.86 4.2 -1122.99 4.2 C-1128.94 4.21 -1134.9 4.21 -1140.85 4.22 C-1146.26 4.24 -1151.67 4.24 -1157.08 4.23 C-1159.03 4.23 -1160.98 4.24 -1162.94 4.24 C-1165.57 4.25 -1168.21 4.25 -1170.85 4.24 C-1171.99 4.25 -1171.99 4.25 -1173.16 4.26 C-1177.21 4.24 -1180.35 3.81 -1184 2 C-1184 1.67 -1184 1.34 -1184 1 C-1147.84 0.97 -1111.69 0.94 -1075.53 0.91 C-1074.82 0.91 -1074.11 0.91 -1073.38 0.91 C-997.6 0.84 -921.81 0.78 -846.02 0.71 C-844.34 0.71 -842.65 0.71 -840.97 0.71 C-805.65 0.68 -770.33 0.65 -735.01 0.62 C-717.27 0.61 -699.52 0.59 -681.78 0.58 C-679.1 0.57 -676.43 0.57 -673.75 0.57 C-632.52 0.53 -591.3 0.5 -550.07 0.46 C-549.18 0.46 -548.29 0.46 -547.38 0.46 C-533.08 0.45 -518.78 0.44 -504.48 0.42 C-463.31 0.39 -422.14 0.36 -380.96 0.32 C-379.69 0.32 -379.69 0.32 -378.4 0.32 C-359.83 0.3 -341.26 0.29 -322.68 0.27 C-315.21 0.26 -307.74 0.26 -300.27 0.25 C-299.45 0.25 -298.63 0.25 -297.79 0.25 C-271.41 0.23 -245.04 0.21 -218.66 0.18 C-192.1 0.16 -165.54 0.14 -138.99 0.12 C-135.32 0.11 -131.66 0.11 -127.99 0.11 C-127.27 0.11 -126.56 0.11 -125.82 0.1 C-114.41 0.09 -103.01 0.09 -91.6 0.08 C-80.41 0.07 -69.21 0.06 -58.01 0.05 C-52.01 0.04 -46.02 0.04 -40.02 0.03 C-34.58 0.03 -29.13 0.02 -23.69 0.02 C-21.72 0.02 -19.75 0.01 -17.78 0.01 C-15.13 0.01 -12.48 0.01 -9.83 0.01 C-9.05 0.01 -8.28 0.01 -7.48 0 C-2.23 0 -2.23 0 0 0 Z " fill="#2C50A1" transform="translate(1232,1205)"/>
<path d="M0 0 C582.12 0.5 582.12 0.5 1176 1 C1173.49 3.51 1171.98 3.24 1168.56 3.26 C1167.41 3.26 1167.41 3.26 1166.24 3.25 C1165.42 3.25 1164.61 3.25 1163.77 3.26 C1161 3.26 1158.23 3.26 1155.46 3.25 C1153.46 3.25 1151.45 3.25 1149.45 3.26 C1143.91 3.26 1138.36 3.26 1132.82 3.25 C1126.8 3.24 1120.79 3.25 1114.78 3.25 C1104.22 3.26 1093.66 3.26 1083.1 3.25 C1071.77 3.24 1060.44 3.24 1049.11 3.24 C1048.04 3.24 1048.04 3.24 1046.94 3.24 C1043.3 3.25 1039.65 3.25 1036.01 3.25 C1009.61 3.25 983.2 3.25 956.8 3.24 C930.64 3.23 904.49 3.23 878.33 3.23 C876.69 3.23 875.05 3.23 873.41 3.23 C866.82 3.23 860.22 3.23 853.63 3.23 C835.2 3.23 816.76 3.23 798.33 3.23 C797.49 3.23 796.65 3.23 795.79 3.23 C769.03 3.23 742.27 3.22 715.51 3.22 C714.64 3.22 713.77 3.22 712.88 3.22 C698.78 3.21 684.68 3.21 670.57 3.21 C614.64 3.19 558.71 3.18 502.77 3.19 C501.01 3.19 499.24 3.19 497.47 3.19 C493.94 3.19 490.41 3.19 486.88 3.19 C478.96 3.19 471.04 3.19 463.12 3.19 C461.37 3.19 459.61 3.19 457.86 3.19 C411.04 3.19 364.23 3.18 317.41 3.18 C316.6 3.18 315.78 3.18 314.94 3.18 C300.04 3.17 300.04 3.17 292.76 3.17 C274.77 3.17 256.78 3.17 238.8 3.17 C237.58 3.17 237.58 3.17 236.34 3.17 C233.07 3.17 229.8 3.17 226.53 3.17 C196.22 3.17 165.91 3.16 135.6 3.15 C132.7 3.15 129.79 3.15 126.89 3.15 C126.18 3.15 125.47 3.15 124.73 3.15 C113.43 3.15 102.12 3.15 90.82 3.15 C79.72 3.15 68.62 3.14 57.52 3.14 C51.58 3.14 45.63 3.13 39.69 3.14 C34.29 3.14 28.9 3.14 23.5 3.13 C21.55 3.13 19.6 3.13 17.65 3.13 C15.02 3.13 12.39 3.13 9.76 3.13 C8.61 3.13 8.61 3.13 7.44 3.13 C2.23 3.11 2.23 3.11 0 2 C0 1.34 0 0.68 0 0 Z " fill="#2D51A2" transform="translate(52,210)"/>
<path d="M0 0 C0 0.66 0 1.32 0 2 C-1.42 2.37 -1.42 2.37 -2.88 2.75 C-6.09 3.66 -6.09 3.66 -7.19 6.06 C-7.46 6.7 -7.72 7.34 -8 8 C-8.99 8.33 -9.98 8.66 -11 9 C-11.29 9.58 -11.58 10.15 -11.88 10.75 C-13.39 13.79 -15.55 15.66 -18 18 C-18.87 18.93 -19.73 19.86 -20.62 20.81 C-23 23 -23 23 -26 23 C-25.38 22.28 -24.76 21.56 -24.12 20.81 C-21.93 18.23 -21.93 18.23 -21.25 15.62 C-19.56 12.07 -17.03 10.19 -14.02 7.71 C-11.8 5.9 -11.8 5.9 -9.31 3.12 C-6.29 0.34 -4 0 0 0 Z " fill="#274791" transform="translate(37,577)"/>
<path d="M0 0 C5.42 0.37 8.2 2.43 11.94 6.12 C12.46 6.62 12.97 7.12 13.51 7.63 C15.02 9.07 16.51 10.54 18 12 C18.77 12.73 19.54 13.46 20.33 14.21 C23.82 17.58 23.82 17.58 25 19 C25 19.66 25 20.32 25 21 C25.66 21 26.32 21 27 21 C26.67 21.99 26.34 22.98 26 24 C21.82 20.49 17.81 16.91 14 13 C13.13 12.15 12.27 11.31 11.38 10.44 C9 8 9 8 7.56 5.88 C5.44 3.33 2.99 2.33 0 1 C0 0.67 0 0.34 0 0 Z " fill="#2B4F9E" transform="translate(1242,577)"/>
<path d="M0 0 C0.33 0.66 0.66 1.32 1 2 C0.67 2.66 0.34 3.32 0 4 C-0.66 4 -1.32 4 -2 4 C-2.25 4.58 -2.5 5.15 -2.75 5.75 C-4.18 8.32 -5.82 10.02 -7.94 12.06 C-8.97 13.07 -8.97 13.07 -10.03 14.1 C-10.68 14.73 -11.33 15.35 -12 16 C-12.54 16.58 -13.08 17.15 -13.63 17.75 C-15 19 -15 19 -17 19 C-17 19.66 -17 20.32 -17 21 C-22.14 25.09 -22.14 25.09 -25.38 24.75 C-25.91 24.5 -26.45 24.25 -27 24 C-25 22 -25 22 -22.69 21.19 C-19.32 19.7 -17.55 17.64 -15 15 C-10 10 -5 5 0 0 Z " fill="#2C50A1" transform="translate(1269,678)"/>
<path d="M0 0 C2.96 2.95 5.9 5.92 8.81 8.92 C10.21 10.34 11.6 11.76 13 13.19 C13.7 13.91 14.4 14.64 15.12 15.38 C15.8 16.07 16.48 16.77 17.19 17.48 C17.8 18.11 18.41 18.74 19.04 19.38 C21.24 21.2 23.32 22.07 26 23 C26 23.66 26 24.32 26 25 C16.39 22.36 10.18 14.42 4 7 C3.34 6.67 2.68 6.34 2 6 C2 5.34 2 4.68 2 4 C1.34 4 0.68 4 0 4 C-0.33 3.01 -0.66 2.02 -1 1 C-0.67 0.67 -0.34 0.34 0 0 Z " fill="#2D51A2" transform="translate(11,678)"/>
<path d="M0 0 C12.67 -0.37 12.67 -0.37 18 2 C18 2.66 18 3.32 18 4 C12.06 3.67 6.12 3.34 0 3 C0 2.01 0 1.02 0 0 Z " fill="#294B98" transform="translate(1220,571)"/>
<path d="M0 0 C1.1 0.19 2.19 0.39 3.32 0.59 C4.16 0.75 5.01 0.9 5.88 1.06 C5.88 1.72 5.88 2.38 5.88 3.06 C-2.54 3.56 -2.54 3.56 -11.12 4.06 C-11.12 3.4 -11.12 2.74 -11.12 2.06 C-10.13 2.06 -9.15 2.06 -8.12 2.06 C-8.12 1.4 -8.12 0.74 -8.12 0.06 C-5.21 -1.39 -3.17 -0.57 0 0 Z " fill="#284995" transform="translate(53.125,570.9375)"/>
<path d="M0 0 C-2 2 -2 2 -4.19 2.62 C-8.49 4.73 -11.03 8.32 -14 12 C-14.99 11.67 -15.98 11.34 -17 11 C-15.25 8 -15.25 8 -13 5 C-11.68 5 -10.36 5 -9 5 C-8.67 3.35 -8.34 1.7 -8 0 C-4.95 -0.98 -3.05 -0.98 0 0 Z " fill="#2A4C9A" transform="translate(33,83)"/>
<path d="M0 0 C-0.33 0.66 -0.66 1.32 -1 2 C-3.44 2.05 -5.87 2.09 -8.31 2.12 C-9.35 2.15 -9.35 2.15 -10.4 2.18 C-14.17 2.21 -15.78 2.14 -19 0 C-12.49 -0.7 -6.45 -1.32 0 0 Z " fill="#2D51A2" transform="translate(61,706)"/>
<path d="M0 0 C5.94 0 11.88 0 18 0 C18 0.33 18 0.66 18 1 C12.39 1 6.78 1 1 1 C0.67 1.66 0.34 2.32 0 3 C0 2.01 0 1.02 0 0 Z M-6 5 C-4.68 5 -3.36 5 -2 5 C-2 5.99 -2 6.98 -2 8 C-3.65 8 -5.3 8 -7 8 C-6.67 7.01 -6.34 6.02 -6 5 Z " fill="#233E84" transform="translate(51,1066)"/>
<path d="M0 0 C1.96 0.04 3.92 0.16 5.88 0.31 C6.94 0.39 8.01 0.47 9.12 0.55 C12 1 12 1 15 3 C12.9 3.05 10.79 3.09 8.69 3.12 C6.93 3.16 6.93 3.16 5.14 3.2 C2 3 2 3 -1 1 C-0.67 0.67 -0.34 0.34 0 0 Z " fill="#000002" transform="translate(1218,568)"/>
<path d="M0 0 C0.66 1.32 1.32 2.64 2 4 C0.23 3.89 -1.54 3.76 -3.31 3.62 C-4.3 3.56 -5.28 3.49 -6.3 3.41 C-9 3 -9 3 -12 1 C-6.06 0.5 -6.06 0.5 0 0 Z " fill="#000002" transform="translate(59,708)"/>
<path d="M0 0 C3.62 1.06 3.62 1.06 7 3 C7.94 5.69 7.94 5.69 8 8 C3.12 6.25 3.12 6.25 2 4 C0.36 3.28 -1.31 2.61 -3 2 C-2.01 1.34 -1.02 0.68 0 0 Z " fill="#101C3B" transform="translate(28,198)"/>
<path d="M0 0 C4.29 0 8.58 0 13 0 C9.72 2.19 8.17 2.35 4.31 2.62 C2.82 2.74 2.82 2.74 1.3 2.85 C0.16 2.93 0.16 2.93 -1 3 C-0.67 2.01 -0.34 1.02 0 0 Z " fill="#000002" transform="translate(1220,709)"/>
<path d="M0 0 C-0.33 0.99 -0.66 1.98 -1 3 C-4.63 3 -8.26 3 -12 3 C-12 2.34 -12 1.68 -12 1 C-10.56 0.83 -9.13 0.67 -7.69 0.5 C-6.89 0.41 -6.09 0.31 -5.26 0.22 C-3 0 -3 0 0 0 Z " fill="#000002" transform="translate(61,568)"/>
<path d="M0 0 C2.57 2.57 2.54 4.48 3 8 C1.5 6.81 1.5 6.81 0 5 C-0.19 2.31 -0.19 2.31 0 0 Z " fill="#000002" transform="translate(1274,607)"/>
<path d="M0 0 C0.66 0 1.32 0 2 0 C1.34 1.65 0.68 3.3 0 5 C-0.56 3.06 -0.56 3.06 -1 1 C-0.67 0.67 -0.34 0.34 0 0 Z " fill="#000002" transform="translate(1265,185)"/>
<path d="M0 0 C1.21 0.03 1.21 0.03 2.44 0.06 C1.78 0.72 1.12 1.38 0.44 2.06 C-1.69 1.69 -1.69 1.69 -3.56 1.06 C-2.56 0.06 -2.56 0.06 0 0 Z " fill="#000002" transform="translate(1237.5625,1203.9375)"/>
<path d="M0 0 C1.98 0.5 1.98 0.5 4 1 C2.35 1.66 0.7 2.32 -1 3 C-0.67 2.01 -0.34 1.02 0 0 Z " fill="#000002" transform="translate(1251,199)"/>
<path d="M0 0 C0.99 0.5 0.99 0.5 2 1 C1.67 2.32 1.34 3.64 1 5 C0.67 3.35 0.34 1.7 0 0 Z " fill="#000002" transform="translate(1274,110)"/>
<path d="M0 0 C2.48 0.49 2.48 0.49 5 1 C4.01 1.33 3.02 1.66 2 2 C1.34 1.34 0.68 0.68 0 0 Z " fill="#000002" transform="translate(40,1204)"/>
<path d="M0 0 C0.66 0 1.32 0 2 0 C1.67 0.99 1.34 1.98 1 3 C0.34 3 -0.32 3 -1 3 C-0.67 2.01 -0.34 1.02 0 0 Z " fill="#2D51A2" transform="translate(1272,1169)"/>
<path d="M0 0 C0.66 0.66 1.32 1.32 2 2 C1.67 2.99 1.34 3.98 1 5 C0.67 3.35 0.34 1.7 0 0 Z " fill="#000002" transform="translate(1269,100)"/>
<path d="M0 0 C0.33 0.99 0.66 1.98 1 3 C0.01 3.49 0.01 3.49 -1 4 C-0.67 2.68 -0.34 1.36 0 0 Z " fill="#000002" transform="translate(1270,1175)"/>
<path d="M0 0 C0.66 0 1.32 0 2 0 C2 0.99 2 1.98 2 3 C1.34 3 0.68 3 0 3 C0 2.01 0 1.02 0 0 Z " fill="#000002" transform="translate(1274,1106)"/>
<path d="M0 0 C0.66 0 1.32 0 2 0 C2 0.66 2 1.32 2 2 C1.01 2.33 0.02 2.66 -1 3 C-0.67 2.01 -0.34 1.02 0 0 Z " fill="#2D51A2" transform="translate(1272,174)"/>
<path d="M0 0 C0.99 0.33 1.98 0.66 3 1 C1.68 1.33 0.36 1.66 -1 2 C-0.67 1.34 -0.34 0.68 0 0 Z " fill="#000002" transform="translate(1246,1199)"/>
<path d="M0 0 C0.33 0.99 0.66 1.98 1 3 C0.34 3 -0.32 3 -1 3 C-0.67 2.01 -0.34 1.02 0 0 Z " fill="#000002" transform="translate(1275,1166)"/>
<path d="M0 0 C0.99 0.33 1.98 0.66 3 1 C1.68 1.33 0.36 1.66 -1 2 C-0.67 1.34 -0.34 0.68 0 0 Z " fill="#000002" transform="translate(1241,704)"/>
<path d="M0 0 C0.33 0.99 0.66 1.98 1 3 C0.34 3 -0.32 3 -1 3 C-0.67 2.01 -0.34 1.02 0 0 Z " fill="#000002" transform="translate(1275,171)"/>
<path d="M0 0 C1 4 1 4 1 4 Z " fill="#000002" transform="translate(1275,667)"/>
<path d="M0 0 C3 1 3 1 3 1 Z " fill="#2D51A2" transform="translate(1240,206)"/>
<path d="M0 0 C0.99 0.5 0.99 0.5 2 1 C1.01 1.5 1.01 1.5 0 2 C0 1.34 0 0.68 0 0 Z " fill="#1F3779" transform="translate(16,91)"/>
<path d="M0 0 C0.99 0.5 0.99 0.5 2 1 C1.01 1.5 1.01 1.5 0 2 C0 1.34 0 0.68 0 0 Z " fill="#1F3779" transform="translate(21,86)"/>
<path d="M0 0 C2 1 2 1 2 1 Z " fill="#1F3779" transform="translate(42,571)"/>
<path d="M0 0 C2 1 2 1 2 1 Z " fill="#1F3779" transform="translate(1213,566)"/>
<path d="M0 0 C2 1 2 1 2 1 Z " fill="#000002" transform="translate(1267,184)"/>
<path d="" fill="#000002" transform="translate(0,0)"/>
<path d="" fill="#1F3779" transform="translate(0,0)"/>
<path d="" fill="#2D51A2" transform="translate(0,0)"/>
<path d="" fill="#000002" transform="translate(0,0)"/>
<path d="" fill="#1F3779" transform="translate(0,0)"/>
<path d="" fill="#000002" transform="translate(0,0)"/>
<path d="" fill="#000002" transform="translate(0,0)"/>
<path d="" fill="#000002" transform="translate(0,0)"/>
<path d="" fill="#2D51A2" transform="translate(0,0)"/>
<path d="" fill="#1F3779" transform="translate(0,0)"/>
<path d="" fill="#000002" transform="translate(0,0)"/>
<path d="" fill="#000002" transform="translate(0,0)"/>
<path d="" fill="#000002" transform="translate(0,0)"/>
<path d="" fill="#1F3779" transform="translate(0,0)"/>
<path d="" fill="#000002" transform="translate(0,0)"/>
<path d="" fill="#000002" transform="translate(0,0)"/>
<path d="" fill="#000002" transform="translate(0,0)"/>
<path d="" fill="#000002" transform="translate(0,0)"/>
<path d="" fill="#000002" transform="translate(0,0)"/>
<path d="" fill="#1F3779" transform="translate(0,0)"/>
<path d="" fill="#1F3779" transform="translate(0,0)"/>
</svg>
