<?xml version="1.0" encoding="UTF-8"?>
<!-- Generator: visioncortex VTracer 0.6.3 -->
<svg version="1.1" xmlns="http://www.w3.org/2000/svg" width="1280" height="1280">
<path d="M0 0 C422.4 0 844.8 0 1280 0 C1280 422.4 1280 844.8 1280 1280 C857.6 1280 435.2 1280 0 1280 C0 857.6 0 435.2 0 0 Z " fill="#F4FBFB" transform="translate(0,0)"/>
<path d="M0 0 C1.76 1.63 1.76 1.63 3 3 C1.97 3.62 0.95 4.23 -0.11 4.87 C-30.56 23.38 -48.88 48.64 -58 83 C-65.68 114.61 -61.25 150.28 -44.66 178.42 C-29.74 201.58 -11.85 217.67 12.24 230.92 C14 232 14 232 16 234 C15.59 242.15 13.63 250.1 11.94 258.06 C11.65 259.42 11.37 260.77 11.08 262.13 C10.39 265.42 9.7 268.71 9 272 C7.68 272.33 6.36 272.66 5 273 C4.81 273.72 4.63 274.45 4.44 275.2 C3.57 278.55 2.69 281.9 1.81 285.25 C1.52 286.39 1.23 287.53 0.93 288.7 C-4.77 310.25 -15.61 329.08 -35 341 C-47.28 347.59 -57.47 349.36 -71.31 349.38 C-72.55 349.4 -73.8 349.42 -75.08 349.45 C-92.72 349.5 -108.42 341.75 -121.3 329.88 C-123.23 327.95 -125.12 325.99 -127 324 C-127.82 323.24 -128.64 322.48 -129.48 321.7 C-132.26 318.72 -134.14 315.67 -135.94 312.06 C-136.28 311.38 -136.62 310.7 -136.97 310.01 C-142.35 298.64 -145.12 286 -147.46 273.7 C-147.64 273.14 -147.82 272.58 -148 272 C-148.66 271.67 -149.32 271.34 -150 271 C-150 270.34 -150 269.68 -150 269 C-150.66 269 -151.32 269 -152 269 C-157.17 237.38 -162.19 205.75 -166.71 174.03 C-167.62 167.64 -168.55 161.26 -169.48 154.88 C-170.15 150.36 -170.8 145.85 -171.46 141.33 C-171.77 139.18 -172.09 137.02 -172.41 134.87 C-172.85 131.88 -173.28 128.9 -173.71 125.91 C-173.85 125.04 -173.98 124.16 -174.11 123.27 C-175.81 111.37 -175.21 101.05 -168 91 C-162.58 84.27 -155.47 79.84 -147 78 C-143.88 77.67 -140.76 77.59 -137.62 77.5 C-136.79 77.45 -135.95 77.39 -135.09 77.34 C-128.96 77.2 -128.96 77.2 -126.16 79.53 C-124.57 81.41 -124.57 81.41 -123.25 83.3 C-121.24 86.03 -119.18 86.94 -116 88 C-111.35 88.68 -107.36 88.52 -103.12 86.38 C-98.99 83.23 -97.42 80.83 -96.65 75.67 C-96.18 67.71 -99.1 63.31 -104.19 57.5 C-108.42 55.24 -112.3 55.37 -117 56 C-120.09 57.18 -122.2 58.05 -124.34 60.58 C-126.63 62.54 -128.17 62.38 -131.16 62.41 C-132.18 62.43 -133.2 62.45 -134.26 62.47 C-135.33 62.48 -136.4 62.49 -137.5 62.5 C-153.21 62.64 -166.56 66.27 -178.29 77.23 C-188.23 87.53 -191.3 101.01 -191.2 114.98 C-190.89 123.43 -189.37 131.8 -188.11 140.14 C-187.81 142.2 -187.51 144.26 -187.21 146.32 C-186.41 151.72 -185.61 157.13 -184.8 162.53 C-184 167.92 -183.21 173.31 -182.42 178.7 C-179.23 200.36 -175.96 222.01 -172.53 243.64 C-171.95 247.29 -171.38 250.95 -170.8 254.61 C-170.62 255.73 -170.45 256.86 -170.26 258.02 C-168.92 266.63 -167.86 274.98 -167.75 283.69 C-167.28 305.76 -155.42 329.93 -140.34 345.8 C-138.08 348.01 -138.08 348.01 -135.69 349.69 C-135.13 350.12 -134.57 350.55 -134 351 C-134 351.66 -134 352.32 -134 353 C-132.68 353.33 -131.36 353.66 -130 354 C-130 354.66 -130 355.32 -130 356 C-129.28 356.26 -128.57 356.53 -127.83 356.8 C-124.9 358.04 -122.39 359.56 -119.69 361.25 C-109.6 367.19 -98.94 371.29 -87.26 372.48 C-85 373 -85 373 -83 376 C-82.86 378.52 -82.84 380.93 -82.91 383.44 C-82.93 384.93 -82.95 386.41 -82.97 387.9 C-83.01 390.24 -83.06 392.58 -83.12 394.91 C-83.16 397.17 -83.19 399.43 -83.22 401.69 C-83.24 402.39 -83.27 403.1 -83.29 403.82 C-83.35 406 -83.35 406 -83 409 C-82.01 409.66 -81.02 410.32 -80 411 C-79.67 410.34 -79.34 409.68 -79 409 C-75.37 409.14 -71.75 409.29 -68.12 409.44 C-66.58 409.5 -66.58 409.5 -65 409.56 C-64.01 409.6 -63.02 409.64 -62.01 409.68 C-61.1 409.72 -60.19 409.76 -59.25 409.79 C-57 410 -57 410 -55 411 C-54.99 411.61 -54.99 412.22 -54.98 412.84 C-54.92 419.24 -54.83 425.63 -54.74 432.02 C-54.7 434.4 -54.68 436.78 -54.65 439.15 C-54.54 468.21 -54.54 468.21 -40.43 492.83 C-28.84 503.18 -15.37 507.86 0 507 C15.8 505.24 28.85 497.16 39 485 C49.99 470.37 57.87 453.84 62 436 C62.18 435.3 62.35 434.6 62.53 433.88 C64.26 426.41 64.35 419.08 64.31 411.44 C64.31 410.44 64.31 410.44 64.3 409.42 C64.24 398.99 63.79 389.09 61 379 C60.78 378.21 60.57 377.42 60.35 376.6 C53.59 352.63 40.84 332.74 26 313 C27.23 316.82 28.61 320.46 30.25 324.12 C36.01 337.87 39.71 352.3 42 367 C42.19 368.15 42.38 369.3 42.57 370.49 C43.02 374.15 43.06 377.64 43 381.31 C42.75 385.82 42.75 385.82 44 390 C44.1 392.62 44.14 395.2 44.12 397.81 C44.13 398.52 44.13 399.24 44.14 399.97 C44.13 403.8 43.75 407.26 43 411 C42.97 414.61 43.06 418.21 43.16 421.82 C43 425 43 425 41 428 C40.21 427.64 39.42 427.27 38.61 426.9 C9.65 413.99 -22.34 408.5 -54 409 C-54 408.34 -54 407.68 -54 407 C-54.66 407 -55.32 407 -56 407 C-56 396.11 -56 385.22 -56 374 C-52.82 373.15 -49.65 372.31 -46.38 371.44 C-18.74 363.7 -1.75 347.4 12.3 323.1 C19.15 310.41 25 291.52 25 277 C25.68 272.63 26.51 268.29 27.31 263.94 C27.53 262.75 27.74 261.56 27.96 260.33 C29.24 253.4 30.78 246.69 33 240 C35.46 240.42 37.89 240.87 40.33 241.38 C43.16 241.86 45.73 242.11 48.57 242.25 C54.59 242.74 60.52 243.29 64.79 247.95 C68.9 254.15 71.41 261.07 74 268 C74.81 270.01 75.63 272.01 76.45 274.02 C83.37 291.29 88.14 308.96 91.75 327.19 C92.05 328.68 92.05 328.68 92.35 330.2 C95.3 345.85 96.34 361.44 96.26 377.33 C96.25 380 96.26 382.66 96.27 385.33 C96.29 400.26 95.34 415.22 92.31 429.88 C92.14 430.69 91.98 431.5 91.8 432.34 C87 454.41 78.16 475.62 65 494 C64.56 494.73 64.12 495.47 63.66 496.23 C57.28 506.86 46.9 517.08 36 523 C34.85 523.65 33.71 524.31 32.53 524.98 C13.54 535.43 -6.08 537.3 -27 532 C-31.18 530.63 -35.07 528.95 -39 527 C-40.4 526.32 -40.4 526.32 -41.83 525.62 C-60.65 515.95 -73.2 499.61 -80.12 479.79 C-82.72 470.7 -83.18 461.91 -83.32 452.5 C-83.34 451.32 -83.36 450.13 -83.38 448.9 C-83.44 445.12 -83.5 441.34 -83.56 437.56 C-83.61 434.99 -83.65 432.42 -83.69 429.85 C-83.8 423.57 -83.9 417.28 -84 411 C-92.48 410.87 -100.72 411.05 -109.12 412.19 C-110.64 412.39 -110.64 412.39 -112.19 412.59 C-132.34 415.33 -152.23 419.18 -171.93 424.22 C-173.95 424.73 -175.98 425.24 -178 425.74 C-224.89 437.3 -268.98 456.47 -311.5 479.12 C-312.4 479.6 -312.4 479.6 -313.32 480.09 C-315.02 480.99 -316.71 481.91 -318.41 482.82 C-319.85 483.6 -319.85 483.6 -321.32 484.39 C-324.09 486.06 -326.52 487.93 -329 490 C-328.57 489.16 -328.57 489.16 -328.12 488.31 C-326.98 486.05 -326.98 486.05 -326.18 483.8 C-325.01 481.02 -323.6 478.48 -322.08 475.89 C-296.73 432.64 -285.31 382.26 -276.95 333.36 C-269.71 291.04 -259.83 244.25 -232 210 C-233.36 211.18 -233.36 211.18 -234.75 212.38 C-236.43 213.83 -237.89 214.95 -239.9 215.91 C-242.02 217.01 -243.5 218.18 -245.25 219.8 C-245.85 220.36 -246.45 220.92 -247.07 221.49 C-247.71 222.09 -248.35 222.69 -249 223.31 C-249.66 223.94 -250.33 224.57 -251.02 225.22 C-267.34 240.78 -280.59 257.94 -291 278 C-291.35 278.67 -291.7 279.34 -292.06 280.02 C-296.81 289.17 -301.07 298.47 -305 308 C-307.65 303.23 -308.12 298.75 -308.15 293.35 C-308.15 292.24 -308.16 291.12 -308.16 289.98 C-308.17 288.78 -308.17 287.58 -308.17 286.34 C-308.17 285.09 -308.17 283.84 -308.18 282.55 C-308.18 279.89 -308.19 277.23 -308.19 274.57 C-308.19 270.57 -308.21 266.57 -308.22 262.57 C-308.27 242.85 -307.09 223.7 -303.75 204.25 C-303.53 202.98 -303.32 201.71 -303.09 200.4 C-295.55 157.46 -280.96 115.42 -255 80 C-254.05 78.64 -254.05 78.64 -253.09 77.26 C-241.34 60.59 -227.18 45.42 -211 33 C-210.48 32.59 -209.96 32.18 -209.42 31.76 C-156.42 -9.62 -63.06 -34.68 0 0 Z " fill="#000248" transform="translate(668,406)"/>
<path d="M0 0 C2.38 1.93 4.46 4.09 6.56 6.31 C7.13 6.89 7.69 7.48 8.27 8.08 C10.53 10.4 12.76 12.71 14.85 15.19 C18.13 17.96 21.88 19.19 25.88 20.69 C27.67 21.38 29.46 22.08 31.26 22.78 C32.19 23.14 33.13 23.5 34.09 23.87 C39 25.78 43.88 27.76 48.75 29.75 C49.65 30.11 50.56 30.48 51.49 30.85 C54 31.88 56.5 32.93 59 34 C59.76 34.32 60.52 34.65 61.31 34.98 C62.02 35.3 62.72 35.62 63.45 35.95 C64.07 36.23 64.68 36.5 65.32 36.79 C68.43 39.03 69.73 41.99 70.69 45.63 C70.91 47.01 70.91 47.01 71.13 48.41 C71.38 49.93 71.38 49.93 71.64 51.47 C71.8 52.51 71.96 53.55 72.12 54.62 C72.46 56.7 72.79 58.78 73.13 60.85 C73.35 62.23 73.35 62.23 73.57 63.63 C73.97 66.14 73.97 66.14 75 69 C76.96 70.34 76.96 70.34 79.43 71.5 C80.36 71.97 81.29 72.44 82.25 72.92 C83.26 73.42 84.27 73.92 85.31 74.44 C94.16 78.92 102.74 83.67 111.18 88.9 C115.9 91.82 120.68 94.41 125.7 96.79 C130.27 99.19 134.36 102.36 138 106 C137.79 114.67 135.6 123.44 133.69 131.88 C133.5 132.74 133.31 133.61 133.12 134.5 C131.23 142.48 127.87 149.4 122.31 155.5 C121.44 156.47 121.44 156.47 120.55 157.47 C119 159 119 159 117 160 C117.41 163.38 118.14 165.22 120.02 168.13 C122.47 172.34 122.62 176.02 122.5 180.81 C122.48 182 122.48 182 122.46 183.22 C122.1 193.61 118.6 200.88 111 208 C104.38 213.31 97.68 213.78 89.46 213.3 C84.69 212.72 80.12 211.29 75.5 210 C60.68 205.91 45.96 205.23 31 209 C31.68 210.11 31.68 210.11 32.38 211.25 C34 214 34 214 35.06 216.19 C35.98 218.18 35.98 218.18 38 220 C21.37 218.57 5.11 215.34 -10 208 C-10.71 207.66 -11.41 207.32 -12.14 206.96 C-41.49 192.61 -63.62 170.21 -74.69 139.16 C-84.23 110.99 -82.16 80.41 -69.05 53.86 C-56.16 28.65 -35.56 8.49 -8.09 -0.43 C-4.75 -1.05 -3.15 -1.3 0 0 Z " fill="#ED0E07" transform="translate(704,416)"/>
<path d="M0 0 C0.84 -0.05 1.68 -0.11 2.54 -0.16 C8.66 -0.3 8.66 -0.3 11.46 2.03 C13.05 3.91 13.05 3.91 14.38 5.8 C16.38 8.53 18.45 9.44 21.62 10.5 C27.03 11.1 31.56 10.58 36.62 8.5 C37.62 9.49 37.62 9.49 38.62 10.5 C38.58 11.37 38.54 12.23 38.5 13.12 C38.79 20.87 43.61 25.77 48.67 31.2 C51.12 34.08 52.74 37.14 54.46 40.49 C56.11 43.34 58.24 45.25 60.62 47.5 C60.62 48.16 60.62 48.82 60.62 49.5 C64.88 51.36 69.12 52.43 73.62 53.5 C74.12 52.51 74.12 52.51 74.62 51.5 C77.24 55.34 78.13 58.43 78.81 63 C84.2 93.84 103.97 122.71 129 141.11 C135.68 145.65 142.79 149.53 149.86 153.42 C151.62 154.5 151.62 154.5 153.62 156.5 C153.22 164.65 151.25 172.6 149.56 180.56 C149.28 181.92 148.99 183.27 148.71 184.63 C148.02 187.92 147.32 191.21 146.62 194.5 C145.31 194.83 143.99 195.16 142.62 195.5 C142.44 196.22 142.25 196.95 142.06 197.7 C141.2 201.05 140.32 204.4 139.44 207.75 C139.15 208.89 138.85 210.03 138.55 211.2 C132.86 232.75 122.01 251.58 102.62 263.5 C90.35 270.09 80.15 271.86 66.31 271.88 C65.07 271.9 63.83 271.92 62.55 271.95 C44.9 272 29.2 264.25 16.33 252.38 C14.39 250.45 12.5 248.49 10.62 246.5 C9.81 245.74 8.99 244.98 8.14 244.2 C5.37 241.22 3.48 238.17 1.69 234.56 C1.35 233.88 1.01 233.2 0.66 232.51 C-4.72 221.14 -7.49 208.5 -9.83 196.2 C-10.01 195.64 -10.19 195.08 -10.38 194.5 C-11.03 194.17 -11.7 193.84 -12.38 193.5 C-12.38 192.84 -12.38 192.18 -12.38 191.5 C-13.03 191.5 -13.7 191.5 -14.38 191.5 C-19.54 159.88 -24.56 128.25 -29.08 96.53 C-29.99 90.14 -30.92 83.76 -31.86 77.38 C-32.52 72.86 -33.18 68.35 -33.84 63.83 C-34.15 61.68 -34.47 59.52 -34.78 57.37 C-35.23 54.38 -35.66 51.4 -36.09 48.41 C-36.22 47.54 -36.35 46.66 -36.49 45.77 C-38.18 33.87 -37.59 23.55 -30.38 13.5 C-22.4 3.6 -12.26 0.34 0 0 Z " fill="#000248" transform="translate(530.375,483.5)"/>
<path d="M0 0 C5.14 2.98 9.21 7.3 11 13 C11.64 17.89 11.68 22.39 9.44 26.88 C6.12 31.13 3.17 33.46 -2.21 34.38 C-7.62 34.66 -11.85 33.56 -16 30 C-16.7 28.97 -17.41 27.95 -18.13 26.89 C-19.71 24.95 -20.58 24.11 -23.02 23.45 C-25.44 23.26 -27.77 23.27 -30.19 23.38 C-31.46 23.4 -31.46 23.4 -32.76 23.43 C-39.13 23.7 -44.44 24.76 -50 28 C-51.05 28.58 -52.1 29.15 -53.19 29.75 C-60.92 35.94 -64.87 42.33 -67 52 C-67.42 60.28 -66.13 68.33 -64.94 76.5 C-64.71 78.07 -64.49 79.64 -64.27 81.21 C-63.78 84.64 -63.29 88.06 -62.79 91.48 C-61.96 97.24 -61.16 102.99 -60.36 108.75 C-57.04 132.4 -53.49 156 -49.58 179.56 C-49.45 180.35 -49.32 181.13 -49.18 181.94 C-48.52 185.96 -47.83 189.96 -47.13 193.97 C-46.99 194.78 -46.85 195.59 -46.71 196.42 C-46.44 197.94 -46.17 199.46 -45.9 200.98 C-45.14 205.41 -44.88 209.53 -45 214 C-44.34 214 -43.68 214 -43 214 C-43 214.66 -43 215.32 -43 216 C-42.01 216.33 -41.02 216.66 -40 217 C-39.36 218.7 -39.36 218.7 -38.98 220.9 C-38.82 221.72 -38.66 222.53 -38.5 223.37 C-38.34 224.24 -38.17 225.11 -38 226 C-34.86 239.61 -30.79 251.79 -24 264 C-23.68 264.76 -23.35 265.52 -23.02 266.3 C-21.7 268.51 -20.3 268.93 -18 270 C-16.84 271.15 -15.71 272.34 -14.62 273.56 C-6.82 281.55 3.37 287.63 14 291 C15.43 291.53 15.43 291.53 16.9 292.08 C22.82 293.74 29.09 293.33 35.19 293.31 C36.44 293.33 37.69 293.34 38.98 293.36 C57.59 293.37 72.53 286.92 86.01 274.09 C99.72 259.7 105.39 241.77 109.8 222.86 C110.91 218.09 110.91 218.09 112 217 C117.98 216.23 122.65 218.71 128 221 C128.99 221.33 129.98 221.66 131 222 C131 222.66 131 223.32 131 224 C131.66 224.33 132.32 224.66 133 225 C126.6 256.39 116.51 286.16 88.88 305.19 C78.11 312.29 64.1 319 51 319 C51 329.89 51 340.78 51 352 C58.41 352.83 58.41 352.83 65.8 353.36 C93.42 354.96 123.31 358.5 148 372 C149.64 368.72 149.06 365.1 149 361.5 C148.86 353.27 148.86 353.27 150 351 C150.1 348.34 150.14 345.72 150.12 343.06 C150.13 342.33 150.13 341.6 150.14 340.85 C150.13 337.64 150.02 335.07 149 332 C149.01 330.15 149.05 328.29 149.12 326.44 C149.24 309.38 144.58 292.02 139 276 C138.76 275.32 138.53 274.64 138.28 273.93 C136.74 269.66 134.89 265.73 132.67 261.76 C132 260 132 260 133 257 C148.26 275.66 160.82 296.52 167.81 319.69 C168.1 320.65 168.1 320.65 168.4 321.63 C177.4 353.28 172.39 386.26 156.99 414.87 C148.48 429.96 135.82 445.49 118.75 450.88 C104.28 454.58 90.64 453.59 77.37 446.43 C66.16 439.66 57.83 430.68 54 418 C52.15 410.23 51.73 402.73 51.8 394.77 C51.81 393.65 51.81 392.54 51.81 391.39 C51.82 387.86 51.85 384.34 51.88 380.81 C51.89 378.41 51.89 376 51.9 373.59 C51.92 367.73 51.96 361.86 52 356 C48.08 355.83 44.17 355.67 40.25 355.5 C39.14 355.45 38.03 355.4 36.88 355.36 C35.28 355.29 35.28 355.29 33.64 355.22 C32.66 355.18 31.67 355.13 30.66 355.09 C28.44 355.02 26.22 355 24 355 C23 354 23 354 22.9 350.9 C22.91 349.53 22.92 348.16 22.94 346.79 C22.94 345.7 22.94 345.7 22.95 344.6 C22.97 341.49 22.99 338.38 23.02 335.27 C23.04 333.01 23.05 330.74 23.06 328.48 C23.07 327.77 23.08 327.07 23.09 326.35 C23.1 323.27 22.98 320.94 22 318 C20.61 318.09 20.61 318.09 19.19 318.19 C6.66 318.14 -5.73 311.53 -16.25 305.31 C-16.92 304.92 -17.59 304.53 -18.28 304.12 C-19.89 303.14 -21.45 302.08 -23 301 C-23 300.34 -23 299.68 -23 299 C-24.32 298.67 -25.64 298.34 -27 298 C-27 297.34 -27 296.68 -27 296 C-27.6 295.73 -28.2 295.46 -28.81 295.19 C-31 294 -32.41 292.9 -34 291 C-34 290.34 -34 289.68 -34 289 C-34.88 288.65 -34.88 288.65 -35.79 288.29 C-40.08 285.79 -42.33 281.08 -45 277 C-45.46 276.35 -45.92 275.69 -46.39 275.02 C-49.97 269.71 -52.2 264 -54.31 257.97 C-54.79 256.59 -55.29 255.22 -55.79 253.84 C-56.64 251.51 -57.45 249.16 -58.25 246.81 C-58.64 245.76 -58.64 245.76 -59.03 244.68 C-60.76 239.45 -61.23 234.41 -61.45 228.93 C-61.92 217.24 -63.78 205.8 -65.56 194.25 C-65.92 191.88 -66.28 189.5 -66.64 187.13 C-67.38 182.21 -68.13 177.28 -68.88 172.36 C-69.96 165.28 -71.02 158.2 -72.06 151.11 C-72.23 149.99 -72.4 148.86 -72.57 147.7 C-73.23 143.2 -73.89 138.7 -74.56 134.2 C-76.19 123.11 -77.84 112.02 -79.55 100.93 C-80.21 96.62 -80.87 92.31 -81.53 88 C-81.84 85.99 -82.15 83.98 -82.47 81.97 C-85.49 62.74 -87.89 43.23 -75.96 26.39 C-67.64 16.26 -56.12 8.83 -43 7 C-37.88 6.7 -32.75 6.68 -27.62 6.7 C-20.84 6.56 -17.75 5.89 -13 1 C-8.59 -0.47 -4.6 -0.83 0 0 Z " fill="#EC0E07" transform="translate(561,461)"/>
<path d="M0 0 C2.46 0.42 4.89 0.87 7.33 1.38 C10.16 1.86 12.73 2.11 15.57 2.25 C21.59 2.74 27.52 3.29 31.79 7.95 C35.9 14.15 38.41 21.07 41 28 C41.81 30.01 42.63 32.01 43.45 34.02 C50.37 51.29 55.14 68.96 58.75 87.19 C58.95 88.18 59.15 89.18 59.35 90.2 C62.3 105.85 63.34 121.44 63.26 137.33 C63.25 140 63.26 142.66 63.27 145.33 C63.29 160.26 62.34 175.22 59.31 189.88 C59.14 190.69 58.98 191.5 58.8 192.34 C54.51 212.04 47.26 232.82 35 249 C31.75 247.66 30.34 246.57 28.88 243.38 C26.01 236.44 23.42 225.23 26 218 C25.34 218 24.68 218 24 218 C22.68 214.03 23.72 212.6 25.25 208.75 C33.2 187.24 34.14 161.2 28 139 C27.78 138.21 27.57 137.42 27.35 136.6 C20.59 112.63 7.84 92.74 -7 73 C-5.77 76.82 -4.39 80.46 -2.75 84.12 C3.01 97.87 6.71 112.3 9 127 C9.19 128.15 9.38 129.3 9.57 130.49 C10.02 134.15 10.06 137.64 10 141.31 C9.75 145.82 9.75 145.82 11 150 C11.1 152.62 11.14 155.2 11.12 157.81 C11.13 158.52 11.13 159.24 11.14 159.97 C11.13 163.8 10.75 167.26 10 171 C9.97 174.61 10.06 178.21 10.16 181.82 C10 185 10 185 8 188 C7.21 187.64 6.42 187.27 5.61 186.9 C-23.35 173.99 -55.34 168.5 -87 169 C-87 168.34 -87 167.68 -87 167 C-87.66 167 -88.32 167 -89 167 C-89 156.11 -89 145.22 -89 134 C-85.82 133.15 -82.65 132.31 -79.38 131.44 C-51.74 123.7 -34.75 107.4 -20.7 83.1 C-13.85 70.41 -8 51.52 -8 37 C-7.32 32.63 -6.49 28.29 -5.69 23.94 C-5.47 22.75 -5.26 21.56 -5.04 20.33 C-3.76 13.4 -2.22 6.69 0 0 Z " fill="#000C7F" transform="translate(701,646)"/>
<path d="M0 0 C2.08 2.08 1.26 6.53 1.32 9.41 C1.34 10.25 1.36 11.09 1.38 11.96 C1.44 14.66 1.5 17.36 1.56 20.06 C1.61 21.89 1.65 23.71 1.69 25.54 C1.8 30.03 1.9 34.51 2 39 C3.08 39.01 4.16 39.03 5.27 39.04 C9.27 39.1 13.27 39.18 17.27 39.26 C19 39.3 20.74 39.32 22.47 39.35 C24.96 39.38 27.44 39.43 29.93 39.49 C31.1 39.5 31.1 39.5 32.28 39.51 C34.47 39.57 34.47 39.57 38 40 C40.5 43.76 40.35 46.81 40.41 51.17 C40.43 51.87 40.45 52.58 40.47 53.3 C40.53 55.93 40.58 58.56 40.62 61.19 C40.75 67.07 40.87 72.94 41 79 C53.54 78.67 66.08 78.34 79 78 C78.96 65.87 78.96 65.87 78.91 53.74 C78.91 52.22 78.9 50.71 78.9 49.19 C78.9 48.4 78.89 47.6 78.89 46.79 C78.89 44.86 78.94 42.93 79 41 C80 40 80 40 83.6 39.89 C85.2 39.89 86.81 39.89 88.41 39.9 C89.25 39.9 90.09 39.91 90.96 39.91 C93.66 39.91 96.36 39.92 99.06 39.94 C100.89 39.94 102.71 39.95 104.54 39.95 C109.03 39.96 113.51 39.98 118 40 C118 36.37 118 32.74 118 29 C123 30 123 30 125.19 31.56 C128.28 33.14 129.6 33.09 133 32.94 C137.68 32.78 137.68 32.78 140.75 34.88 C141.49 35.58 142.24 36.28 143 37 C148.34 39.39 153.4 39.27 159.12 39.19 C160.02 39.19 160.91 39.19 161.83 39.19 C167.5 39.21 167.5 39.21 173 38 C173.33 37.34 173.66 36.68 174 36 C172.9 49.61 168.68 60.21 159 70 C158.01 70.5 158.01 70.5 157 71 C157.41 74.38 158.14 76.22 160.02 79.13 C162.47 83.34 162.62 87.02 162.5 91.81 C162.49 92.61 162.47 93.4 162.46 94.22 C162.1 104.61 158.6 111.88 151 119 C144.38 124.31 137.68 124.78 129.46 124.3 C124.69 123.72 120.12 122.29 115.5 121 C100.68 116.91 85.96 116.23 71 120 C71.45 120.74 71.91 121.49 72.38 122.25 C74 125 74 125 75.06 127.19 C75.98 129.18 75.98 129.18 78 131 C61.37 129.57 45.11 126.34 30 119 C29.29 118.66 28.59 118.32 27.86 117.96 C-1.49 103.61 -23.62 81.21 -34.69 50.16 C-39.56 35.8 -40.44 22.2 -40.3 7.1 C-40.29 6.17 -40.28 5.23 -40.27 4.27 C-40 2 -40 2 -38 0 C-37.3 0.19 -36.6 0.37 -35.88 0.56 C-32.24 1.12 -30.18 0.13 -26.87 -1.31 C-25 -2 -25 -2 -22 -2 C-21.67 -1.34 -21.34 -0.68 -21 0 C-19.68 -0.33 -18.36 -0.66 -17 -1 C-17 -1.66 -17 -2.32 -17 -3 C-9.96 -4.24 -5.98 -3.99 0 0 Z " fill="#900306" transform="translate(664,505)"/>
<path d="M0 0 C1.76 1.62 1.76 1.62 3 3 C1.97 3.62 0.95 4.23 -0.11 4.87 C-31.4 23.89 -49.66 50.02 -58.6 85.37 C-62.1 100.62 -61.3 116.46 -61 132 C-61.66 131.34 -62.32 130.68 -63 130 C-63.33 130.33 -63.66 130.66 -64 131 C-68.03 131.26 -69.56 131.29 -73 129 C-73.66 129.33 -74.32 129.66 -75 130 C-75 129.01 -75 128.02 -75 127 C-75.66 127 -76.32 127 -77 127 C-81.18 122.58 -84.77 117.72 -87.56 112.31 C-89.23 109.1 -90.98 106.85 -93.62 104.38 C-97.85 100.39 -99.84 96.76 -100.19 90.81 C-100.13 89.88 -100.06 88.96 -100 88 C-100 86.68 -100 85.36 -100 84 C-99.5 83.13 -99.01 82.27 -98.5 81.38 C-96.46 76.79 -96.18 72.94 -97 68 C-99.05 63.07 -102.26 58.53 -107 56 C-112.99 55.13 -117.86 55.61 -123 59 C-123.44 59.52 -123.88 60.04 -124.34 60.58 C-126.63 62.54 -128.17 62.38 -131.16 62.41 C-132.18 62.43 -133.2 62.45 -134.26 62.47 C-135.33 62.48 -136.4 62.49 -137.5 62.5 C-145.85 62.57 -153.03 63.51 -161 66 C-164.68 67.14 -164.68 67.14 -167.56 65.88 C-171.26 63.03 -172.74 60.42 -173.58 55.83 C-175.04 50.6 -179.12 47.5 -183 43.94 C-191.85 35.76 -191.85 35.76 -193 30 C-193.33 30 -193.66 30 -194 30 C-194.12 29.22 -194.25 28.43 -194.38 27.62 C-194.79 24.86 -194.79 24.86 -197 23 C-143.77 -11.55 -59.33 -32.63 0 0 Z " fill="#000C7F" transform="translate(668,406)"/>
<path d="M0 0 C15.26 18.66 27.82 39.52 34.81 62.69 C35.01 63.33 35.2 63.97 35.4 64.63 C44.4 96.28 39.39 129.26 23.99 157.87 C15.48 172.96 2.82 188.49 -14.25 193.88 C-28.72 197.58 -42.36 196.59 -55.63 189.43 C-66.84 182.66 -75.16 173.68 -79 161 C-80.9 153.09 -81.27 145.44 -81.2 137.33 C-81.19 136.17 -81.19 135.01 -81.19 133.81 C-81.18 130.15 -81.15 126.48 -81.12 122.81 C-81.11 120.31 -81.11 117.81 -81.1 115.3 C-81.08 109.2 -81.04 103.1 -81 97 C-78.6 95.8 -77.27 95.94 -74.59 96.05 C-73.24 96.11 -73.24 96.11 -71.87 96.17 C-70.42 96.24 -70.42 96.24 -68.94 96.31 C-67.94 96.36 -66.94 96.41 -65.91 96.46 C-38.61 97.94 -9.42 101.98 15 115 C16.64 111.72 16.06 108.1 16 104.5 C15.86 96.27 15.86 96.27 17 94 C17.1 91.34 17.14 88.72 17.12 86.06 C17.13 85.33 17.13 84.6 17.14 83.85 C17.13 80.64 17.02 78.07 16 75 C16.01 73.15 16.05 71.29 16.12 69.44 C16.24 52.38 11.58 35.02 6 19 C5.76 18.32 5.53 17.64 5.28 16.93 C3.74 12.66 1.89 8.73 -0.33 4.76 C-1 3 -1 3 0 0 Z " fill="#F4FBFB" transform="translate(694,718)"/>
<path d="M0 0 C8.3 6.77 13.97 18.1 15.09 28.67 C15.4 39.65 12.99 49 5.75 57.44 C0.41 62.56 -4.09 65.69 -11.25 67.44 C-11.43 68.4 -11.62 69.35 -11.81 70.34 C-15 85.48 -21.7 99.01 -32.25 110.44 C-32.68 110.92 -33.11 111.39 -33.56 111.89 C-47.79 127.51 -67.58 138.31 -88.96 139.6 C-112.14 140.51 -133.58 136.55 -153.25 123.44 C-152.59 122.12 -151.93 120.8 -151.25 119.44 C-150.59 119.44 -149.93 119.44 -149.25 119.44 C-148.85 118.48 -148.85 118.48 -148.44 117.5 C-147.25 115.44 -147.25 115.44 -144.25 114.44 C-143.57 113.11 -142.91 111.77 -142.25 110.44 C-140.76 108.81 -139.21 107.23 -137.62 105.69 C-136.81 104.89 -135.99 104.09 -135.15 103.27 C-134.52 102.66 -133.9 102.06 -133.25 101.44 C-131.98 102.14 -131.98 102.14 -130.68 102.86 C-114.16 111.75 -96.52 114.15 -78.21 109.07 C-61.32 103.64 -50.51 93.06 -42.25 77.44 C-40.76 74.15 -39.42 70.85 -38.25 67.44 C-38.91 67.11 -39.57 66.78 -40.25 66.44 C-50.43 59.29 -57.87 51.7 -61.25 39.44 C-62.71 28.96 -60.66 17.8 -54.5 9.06 C-40.55 -7.51 -18.76 -12.4 0 0 Z " fill="#ED0F07" transform="translate(866.25,802.5625)"/>
<path d="M0 0 C1.19 -0 1.19 -0 2.4 -0.01 C4.08 -0.02 5.76 -0.02 7.44 -0.02 C10.02 -0.02 12.6 -0.04 15.17 -0.06 C16.8 -0.06 18.43 -0.06 20.06 -0.06 C21.22 -0.07 21.22 -0.07 22.41 -0.08 C27.87 -0.06 27.87 -0.06 30.1 2.17 C30.34 4.89 30.47 7.51 30.51 10.24 C30.53 11.03 30.55 11.83 30.57 12.65 C30.63 15.2 30.68 17.75 30.72 20.29 C30.76 22.02 30.8 23.74 30.84 25.47 C30.94 29.7 31.02 33.93 31.1 38.17 C32.72 38.15 32.72 38.15 34.37 38.14 C38.37 38.1 42.37 38.08 46.37 38.06 C48.1 38.05 49.83 38.03 51.57 38.02 C54.05 37.99 56.54 37.98 59.03 37.97 C59.8 37.96 60.58 37.95 61.38 37.94 C63.29 37.94 65.19 38.05 67.1 38.17 C69.1 40.17 69.1 40.17 69.32 43.7 C69.32 45.21 69.31 46.73 69.29 48.24 C69.29 48.94 69.29 49.65 69.29 50.38 C69.28 53.02 69.25 55.65 69.22 58.29 C69.18 64.19 69.14 70.09 69.1 76.17 C56.56 76.5 44.02 76.83 31.1 77.17 C30.77 89.38 30.44 101.59 30.1 114.17 C26.92 115.75 23.51 115.29 20.03 115.27 C19.23 115.26 18.43 115.26 17.61 115.26 C15.07 115.26 12.52 115.24 9.97 115.23 C8.25 115.23 6.52 115.22 4.8 115.22 C0.56 115.21 -3.67 115.19 -7.9 115.17 C-9.42 112.14 -9.12 108.97 -9.18 105.64 C-9.21 104.52 -9.21 104.52 -9.24 103.38 C-9.3 101 -9.35 98.62 -9.4 96.23 C-9.47 93.1 -9.54 89.96 -9.62 86.83 C-9.63 86.11 -9.65 85.38 -9.66 84.64 C-9.74 81.57 -9.92 79.11 -10.9 76.17 C-12.53 76.18 -12.53 76.18 -14.19 76.18 C-18.2 76.2 -22.22 76.21 -26.23 76.22 C-27.97 76.23 -29.71 76.23 -31.45 76.24 C-33.94 76.26 -36.44 76.26 -38.93 76.27 C-39.71 76.27 -40.49 76.28 -41.3 76.28 C-43.17 76.28 -45.04 76.23 -46.9 76.17 C-47.9 75.17 -47.9 75.17 -48.02 71.66 C-48.02 70.1 -48.01 68.54 -48 66.98 C-48 65.89 -48 65.89 -48 64.78 C-47.99 62.05 -47.98 59.33 -47.96 56.61 C-47.94 50.52 -47.92 44.44 -47.9 38.17 C-35.36 38.17 -22.82 38.17 -9.9 38.17 C-9.61 26.04 -9.61 26.04 -9.33 13.9 C-9.3 12.39 -9.26 10.87 -9.22 9.36 C-9.2 8.57 -9.19 7.77 -9.17 6.95 C-8.96 -0.84 -7.13 0.01 0 0 Z " fill="#F4FBFB" transform="translate(712.90234375,468.83203125)"/>
<path d="M0 0 C0.33 0 0.66 0 1 0 C0.86 2.29 0.71 4.58 0.56 6.88 C0.5 7.9 0.5 7.9 0.44 8.95 C0.19 12.86 -0.23 16.69 -0.81 20.56 C-1.34 25.18 0.14 27.33 3 31 C2.67 31.99 2.34 32.98 2 34 C2 33.34 2 32.68 2 32 C1.01 32 0.02 32 -1 32 C-0.77 32.57 -0.54 33.14 -0.3 33.73 C0.4 35.48 1.1 37.23 1.8 38.98 C2.59 40.97 3.39 42.97 4.2 44.96 C9.78 58.97 13.6 73.12 16 88 C16.19 89.16 16.38 90.31 16.58 91.5 C17.02 95.15 17.06 98.64 17 102.31 C16.75 106.82 16.75 106.82 18 111 C18.1 113.62 18.14 116.2 18.12 118.81 C18.13 119.52 18.13 120.24 18.14 120.97 C18.13 124.8 17.75 128.26 17 132 C16.97 135.61 17.06 139.21 17.16 142.82 C17 146 17 146 15 149 C14.21 148.64 13.42 148.27 12.61 147.9 C-16.35 134.99 -48.34 129.5 -80 130 C-80 129.34 -80 128.68 -80 128 C-80.66 128 -81.32 128 -82 128 C-82 117.11 -82 106.22 -82 95 C-77.24 93.73 -77.24 93.73 -72.38 92.44 C-44.74 84.7 -27.75 68.4 -13.7 44.1 C-6.93 31.56 -4.5 17.42 -1.63 3.6 C-1 1 -1 1 0 0 Z " fill="#000248" transform="translate(694,685)"/>
<path d="M0 0 C5.14 2.98 9.21 7.3 11 13 C11.64 17.89 11.68 22.39 9.44 26.88 C6.12 31.13 3.17 33.46 -2.21 34.38 C-7.62 34.66 -11.85 33.56 -16 30 C-16.7 28.97 -17.41 27.95 -18.13 26.89 C-19.71 24.95 -20.58 24.11 -23.02 23.45 C-25.44 23.26 -27.77 23.27 -30.19 23.38 C-31.46 23.4 -31.46 23.4 -32.76 23.43 C-39.13 23.7 -44.44 24.76 -50 28 C-51.05 28.58 -52.1 29.15 -53.19 29.75 C-60.92 35.94 -64.87 42.33 -67 52 C-67.42 60.28 -66.13 68.33 -64.94 76.5 C-64.71 78.07 -64.49 79.64 -64.27 81.21 C-63.78 84.64 -63.29 88.06 -62.79 91.48 C-61.96 97.24 -61.16 102.99 -60.36 108.75 C-57.29 130.62 -54.04 152.43 -50.43 174.21 C-48.13 188.12 -45.99 202.04 -44 216 C-49.32 218.04 -54.45 219.71 -60 221 C-60 220.34 -60 219.68 -60 219 C-60.66 219 -61.32 219 -62 219 C-62.2 217.63 -62.4 216.27 -62.61 214.9 C-62.74 213.99 -62.88 213.08 -63.02 212.15 C-63.32 210.06 -63.63 207.98 -63.94 205.9 C-64.82 199.94 -65.71 193.97 -66.59 188.01 C-68.25 176.82 -69.91 165.64 -71.56 154.45 C-71.9 152.18 -72.23 149.91 -72.57 147.64 C-73.4 142.05 -74.23 136.46 -75.05 130.86 C-76.52 120.88 -78.01 110.9 -79.55 100.93 C-80.21 96.62 -80.87 92.31 -81.53 88 C-81.84 85.99 -82.15 83.98 -82.47 81.97 C-85.49 62.74 -87.89 43.23 -75.96 26.39 C-67.64 16.26 -56.12 8.83 -43 7 C-37.88 6.7 -32.75 6.68 -27.62 6.7 C-20.84 6.56 -17.75 5.89 -13 1 C-8.59 -0.47 -4.6 -0.83 0 0 Z " fill="#F4FBFB" transform="translate(561,461)"/>
<path d="M0 0 C1.95 0.25 1.95 0.25 3.94 0.5 C9.76 1.1 15.53 1.06 21.37 0.96 C23.25 0.94 25.12 0.97 27 1 C27.33 1.33 27.66 1.66 28 2 C27.34 22.02 13.09 39.88 -0.8 53.17 C-19.11 69.9 -43.32 74.09 -67.22 73.17 C-83.31 72.19 -99.62 65.92 -113 57 C-112.34 55.68 -111.68 54.36 -111 53 C-110.34 53 -109.68 53 -109 53 C-108.6 52.04 -108.6 52.04 -108.19 51.06 C-107 49 -107 49 -104 48 C-103.32 46.67 -102.66 45.34 -102 44 C-100.51 42.37 -98.96 40.79 -97.38 39.25 C-96.15 38.05 -96.15 38.05 -94.9 36.83 C-94.27 36.22 -93.65 35.62 -93 35 C-92.15 35.47 -91.3 35.94 -90.43 36.43 C-73.91 45.31 -56.27 47.71 -37.96 42.63 C-21.07 37.21 -10.26 26.62 -2 11 C-0.51 7.71 0.83 4.41 2 1 C1.01 0.5 1.01 0.5 0 0 Z " fill="#000248" transform="translate(826,869)"/>
<path d="M0 0 C0.99 0 1.98 0 3 0 C3.33 5.61 3.66 11.22 4 17 C2.68 16.34 1.36 15.68 0 15 C0 10.05 0 5.1 0 0 Z " fill="#900306" transform="translate(584,800)"/>
<path d="M0 0 C0.99 0.33 1.98 0.66 3 1 C2.62 1.44 2.25 1.87 1.86 2.32 C1.1 3.21 1.1 3.21 0.31 4.12 C-0.24 4.77 -0.79 5.41 -1.36 6.07 C-2.73 7.69 -4.06 9.34 -5.38 11 C-8.12 14.14 -11.05 16.79 -14.23 19.48 C-16.08 21.03 -16.08 21.03 -18 23 C-18.33 22.01 -18.66 21.02 -19 20 C-18.53 19.6 -18.05 19.2 -17.57 18.79 C-7.31 10.57 -7.31 10.57 0 0 Z " fill="#A893AE" transform="translate(730,903)"/>
<path d="M0 0 C4.95 0 9.9 0 15 0 C15 0.99 15 1.98 15 3 C10.05 3 5.1 3 0 3 C0 2.01 0 1.02 0 0 Z " fill="#920306" transform="translate(590,754)"/>
</svg>
